<svg width="24" height="24" viewBox="0 0 24 24" fill="none" xmlns="http://www.w3.org/2000/svg">
<g clip-path="url(#clip0_6951_1072)">
<path d="M12.1294 15.7412H21.2133C22.3235 15.7412 23.2213 14.8369 23.2132 13.7267L23.1663 7.23766C23.1615 6.58079 22.8984 5.95218 22.4339 5.48775L18.4449 1.49982C17.9761 1.03112 17.3403 0.767822 16.6773 0.767822H12.1294C11.0248 0.767822 10.1294 1.66325 10.1294 2.76782V13.7412C10.1294 14.8457 11.0248 15.7412 12.1294 15.7412Z" fill="#FF9900" stroke="#FF9900" stroke-width="1.5"/>
<path d="M13.7278 7.51876L11.1226 11.2819C10.8759 11.6382 10.7525 11.8164 10.7596 11.9646C10.7657 12.0936 10.8284 12.2134 10.931 12.2918C11.0489 12.3819 11.2656 12.3819 11.6989 12.3819H18.2474L14.8806 7.51876C14.6869 7.23908 14.5901 7.09923 14.4692 7.05008C14.3634 7.00707 14.245 7.00707 14.1392 7.05008C14.0183 7.09923 13.9214 7.23908 13.7278 7.51876Z" fill="white" stroke="white" stroke-width="0.948235" stroke-linecap="round" stroke-linejoin="round"/>
<path d="M20.3973 12.3864H16.5747L18.169 9.8072L18.495 9.31812C18.6901 9.02558 18.7876 8.87931 18.9105 8.82834C19.0179 8.78378 19.1387 8.78378 19.2462 8.82834C19.3691 8.87931 19.4666 9.02558 19.6616 9.31812L20.9805 11.2965L20.9805 11.2965C21.2166 11.6506 21.3346 11.8276 21.3258 11.9744C21.3182 12.1022 21.2549 12.2204 21.1528 12.2977C21.0355 12.3864 20.8228 12.3864 20.3973 12.3864H20.3973Z" fill="white" stroke="white" stroke-width="0.948235" stroke-linecap="round" stroke-linejoin="round"/>
<path d="M17.5087 6.74964C18.2347 6.74964 18.8231 6.16117 18.8231 5.43525C18.8231 4.70932 18.2347 4.12085 17.5087 4.12085C16.7828 4.12085 16.1943 4.70932 16.1943 5.43525C16.1943 6.16117 16.7828 6.74964 17.5087 6.74964Z" fill="white"/>
<path d="M7.00506 3.84979L8.44864 2.44028L7.09478 0.953958" stroke="#0057FF" stroke-width="1.25" stroke-linecap="round" stroke-linejoin="round"/>
<path d="M8.06956 2.39333C4.72678 1.98289 2.57956 4.17102 2.29443 6.49316" stroke="#0057FF" stroke-width="1.25" stroke-linecap="round"/>
<path d="M3.27002 23.0729H11.8539C12.9641 23.0729 13.8619 22.1687 13.8539 21.0585L13.8069 14.5695C13.8022 13.9126 13.5391 13.284 13.0745 12.8195L9.0855 8.83161C8.61668 8.36291 7.9809 8.09961 7.31797 8.09961H3.27002C1.88931 8.09961 0.77002 9.2189 0.77002 10.5996V20.5729C0.77002 21.9537 1.88931 23.0729 3.27002 23.0729Z" fill="#FF5B15" stroke="#FF5B15" stroke-width="1.5"/>
<path d="M7.03978 12.322C8.11328 12.322 8.89659 12.5413 9.38971 12.9797C9.88283 13.4182 10.1294 14.0325 10.1294 14.8225C10.1294 15.1816 10.0725 15.5237 9.9587 15.8488C9.84869 16.1701 9.66662 16.4555 9.41247 16.705C9.15832 16.9507 8.82262 17.1453 8.40536 17.289C7.99189 17.4326 7.4817 17.5044 6.87478 17.5044H5.98716V20.6116H4.62158V12.322H7.03978ZM6.94875 13.4504H5.98716V16.3704H6.73253C7.16117 16.3704 7.52532 16.3213 7.82499 16.223C8.12466 16.121 8.35225 15.9603 8.50778 15.7411C8.6633 15.5218 8.74106 15.2326 8.74106 14.8735C8.74106 14.3935 8.59502 14.0363 8.30294 13.8019C8.01465 13.5675 7.56325 13.4504 6.94875 13.4504Z" fill="white"/>
</g>
<defs>
<clipPath id="clip0_6951_1072">
<rect width="24" height="24" fill="white"/>
</clipPath>
</defs>
</svg>
