<svg width="24" height="24" viewBox="0 0 24 24" fill="none" xmlns="http://www.w3.org/2000/svg">
<g clip-path="url(#clip0_6951_1059)">
<path d="M12.1294 15.7417H21.2133C22.3235 15.7417 23.2213 14.8374 23.2132 13.7272L23.1648 7.03313C23.161 6.50763 22.9505 6.00474 22.5789 5.63319L18.2984 1.35391C17.9234 0.978951 17.4148 0.768311 16.8844 0.768311H12.1294C11.0248 0.768311 10.1294 1.66374 10.1294 2.76831V13.7417C10.1294 14.8462 11.0248 15.7417 12.1294 15.7417Z" fill="#E53935" stroke="#E53935" stroke-width="1.5"/>
<path d="M16.343 5.41797C17.4165 5.41797 18.1998 5.63721 18.6929 6.07569C19.1861 6.51418 19.4326 7.12843 19.4326 7.91846C19.4326 8.27756 19.3757 8.61966 19.2619 8.94474C19.1519 9.26604 18.9698 9.55143 18.7157 9.80092C18.4615 10.0466 18.1258 10.2413 17.7086 10.3849C17.2951 10.5286 16.7849 10.6004 16.178 10.6004H15.2904V13.7076H13.9248V5.41797H16.343ZM16.252 6.54631H15.2904V9.46638H16.0358C16.4644 9.46638 16.8285 9.41724 17.1282 9.31896C17.4279 9.2169 17.6555 9.05625 17.811 8.83701C17.9665 8.61777 18.0443 8.32859 18.0443 7.96949C18.0443 7.48943 17.8982 7.13221 17.6062 6.89785C17.3179 6.66349 16.8665 6.54631 16.252 6.54631Z" fill="white"/>
<path d="M7.00506 3.84954L8.44864 2.44004L7.09478 0.953714" stroke="#0057FF" stroke-width="1.25" stroke-linecap="round" stroke-linejoin="round"/>
<path d="M8.06956 2.39309C4.72678 1.98265 2.57956 4.17078 2.29443 6.49292" stroke="#0057FF" stroke-width="1.25" stroke-linecap="round"/>
<path d="M2.77002 23.0727H11.8539C12.9641 23.0727 13.8619 22.1684 13.8539 21.0582L13.8054 14.3642C13.8016 13.8387 13.5911 13.3358 13.2195 12.9642L8.93906 8.68496C8.564 8.31001 8.05538 8.09937 7.52504 8.09937H2.77002C1.66545 8.09937 0.77002 8.9948 0.77002 10.0994V21.0727C0.77002 22.1773 1.66545 23.0727 2.77002 23.0727Z" fill="#FF5B15" stroke="#FF5B15" stroke-width="1.5"/>
<path d="M7.03978 12.3218C8.11328 12.3218 8.89659 12.541 9.38971 12.9795C9.88283 13.418 10.1294 14.0322 10.1294 14.8223C10.1294 15.1814 10.0725 15.5235 9.9587 15.8485C9.84869 16.1698 9.66662 16.4552 9.41247 16.7047C9.15832 16.9504 8.82262 17.1451 8.40536 17.2887C7.99189 17.4324 7.4817 17.5042 6.87478 17.5042H5.98716V20.6114H4.62158V12.3218H7.03978ZM6.94875 13.4501H5.98716V16.3702H6.73253C7.16117 16.3702 7.52532 16.3211 7.82499 16.2228C8.12466 16.1207 8.35225 15.9601 8.50778 15.7408C8.6633 15.5216 8.74106 15.2324 8.74106 14.8733C8.74106 14.3932 8.59502 14.036 8.30294 13.8017C8.01465 13.5673 7.56325 13.4501 6.94875 13.4501Z" fill="white"/>
</g>
<defs>
<clipPath id="clip0_6951_1059">
<rect width="24" height="24" fill="white"/>
</clipPath>
</defs>
</svg>
