<svg width="24" height="24" viewBox="0 0 24 24" fill="none" xmlns="http://www.w3.org/2000/svg">
<path d="M5.71419 19.3388H14.886C16.4613 19.3388 17.735 18.0558 17.7236 16.4806L17.6745 9.68659C17.6691 8.94098 17.3705 8.22745 16.8431 7.70028L12.3153 3.17362C11.7831 2.64161 11.0615 2.34274 10.309 2.34274H5.71419C4.14696 2.34274 2.87646 3.61324 2.87646 5.18047V16.5011C2.87646 18.0683 4.14696 19.3388 5.71419 19.3388Z" fill="#EF552E" stroke="#EF552E" stroke-width="1.70263"/>
<path d="M10.9186 11.2997L13.0963 9.12198L10.9186 6.94428M6.5632 6.94428L4.3855 9.12198L6.5632 11.2997M9.61198 5.20212L7.86982 13.0418" stroke="white" stroke-width="1.25" stroke-linecap="round" stroke-linejoin="round"/>
<circle cx="16.1233" cy="16.6573" r="5.5" fill="white" stroke="#0057FF"/>
<g clip-path="url(#clip0_9552_1393)">
<path d="M13.0728 17.2673C13.0728 17.2673 13.1098 17.5263 14.1819 18.5985C15.2541 19.6707 16.9925 19.6707 18.0646 18.5985C18.4445 18.2186 18.6898 17.7551 18.8005 17.2673M14.4456 17.2673H13.0728V18.7632M19.1738 16.0471C19.1738 16.0471 19.1368 15.788 18.0646 14.7158C16.9925 13.6436 15.2541 13.6436 14.1819 14.7158C13.8021 15.0957 13.5568 15.5592 13.4461 16.0471M17.8029 16.0471H19.1738V14.3457" stroke="#0057FF" stroke-linecap="round" stroke-linejoin="round"/>
</g>
<defs>
<clipPath id="clip0_9552_1393">
<rect width="7.32129" height="7.32129" fill="white" transform="translate(12.4626 12.9966)"/>
</clipPath>
</defs>
</svg>
