<svg width="24" height="24" viewBox="0 0 24 24" fill="none" xmlns="http://www.w3.org/2000/svg">
<g clip-path="url(#clip0_9552_1418)">
<path d="M12.1304 15.9774H21.2143C22.3245 15.9774 23.2222 15.0732 23.2142 13.963L23.1673 7.47393C23.1625 6.81706 22.8994 6.18845 22.4349 5.72401L18.4459 1.73609C17.977 1.26739 17.3412 1.00409 16.6783 1.00409H12.1304C11.0258 1.00409 10.1304 1.89952 10.1304 3.00409V13.9774C10.1304 15.082 11.0258 15.9774 12.1304 15.9774Z" fill="#3782F5" stroke="#3782F5" stroke-width="1.5"/>
<path d="M21.0486 6.66095L19.2973 13.3416H18.0962L16.9777 9.33868C16.9501 9.24119 16.9196 9.12543 16.886 8.99139C16.8523 8.85736 16.8187 8.72027 16.7851 8.58014C16.7546 8.44001 16.727 8.31206 16.7026 8.1963C16.6812 8.07749 16.6659 7.9861 16.6568 7.92213C16.6506 7.9861 16.6369 8.07597 16.6155 8.19173C16.5941 8.30749 16.5681 8.43544 16.5376 8.57557C16.5101 8.71265 16.4795 8.84974 16.4459 8.98682C16.4123 9.12086 16.3817 9.23967 16.3542 9.34325L15.2539 13.3416H14.0574L12.3108 6.66095H13.4156L14.3829 10.577C14.4135 10.7019 14.444 10.8375 14.4746 10.9837C14.5082 11.1269 14.5388 11.2716 14.5663 11.4178C14.5969 11.564 14.6244 11.7072 14.6488 11.8473C14.6733 11.9844 14.6931 12.1093 14.7084 12.222C14.7237 12.1063 14.7436 11.9783 14.768 11.8382C14.7925 11.695 14.8184 11.5503 14.8459 11.4041C14.8765 11.2548 14.9071 11.1116 14.9376 10.9746C14.9712 10.8375 15.0049 10.7141 15.0385 10.6044L16.1296 6.66095H17.2023L18.3163 10.6181C18.3499 10.7308 18.382 10.8573 18.4126 10.9974C18.4462 11.1375 18.4783 11.2807 18.5088 11.4269C18.5394 11.5732 18.5669 11.7148 18.5913 11.8519C18.6158 11.989 18.6357 12.1124 18.6509 12.222C18.6723 12.0728 18.6998 11.9022 18.7335 11.7102C18.7671 11.5183 18.8053 11.3234 18.8481 11.1253C18.8909 10.9273 18.9336 10.7446 18.9764 10.577L19.9391 6.66095H21.0486Z" fill="white"/>
<path d="M7.00629 4.08559L8.44986 2.67609L7.096 1.18977" stroke="#0057FF" stroke-width="1.25" stroke-linecap="round" stroke-linejoin="round"/>
<path d="M8.07054 2.62911C4.72776 2.21867 2.58053 4.4068 2.29541 6.72894" stroke="#0057FF" stroke-width="1.25" stroke-linecap="round"/>
<path d="M2.9248 23.3087H12.0087C13.1189 23.3087 14.0167 22.4044 14.0086 21.2942L13.9617 14.8052C13.9569 14.1483 13.6938 13.5197 13.2293 13.0553L9.24029 9.06735C8.77146 8.59866 8.13568 8.33536 7.47276 8.33536H2.9248C1.82024 8.33536 0.924805 9.23079 0.924805 10.3354V21.3087C0.924805 22.4133 1.82023 23.3087 2.9248 23.3087Z" fill="#349FE6" stroke="#19A3E2" stroke-width="1.5"/>
<path d="M6.45163 15.001L4.81834 16.4301L3.18505 15.001H2.36841V19.9009H4.0017V17.4509L4.81834 18.2676L5.63499 17.4509V19.9009H7.26828V15.001H6.45163ZM11.3515 17.4509V15.001H9.71821V17.4509H8.08492L10.5349 20.7175L12.9848 17.4509H11.3515Z" fill="white"/>
</g>
<defs>
<clipPath id="clip0_9552_1418">
<rect width="24" height="24" fill="white"/>
</clipPath>
</defs>
</svg>
