<svg width="24" height="24" viewBox="0 0 24 24" fill="none" xmlns="http://www.w3.org/2000/svg">
<path d="M5.20979 18.747H14.3816C15.9569 18.747 17.2306 17.464 17.2192 15.8888L17.1701 9.09479C17.1647 8.34918 16.8661 7.63565 16.3388 7.10848L11.8109 2.58183C11.2787 2.04981 10.5571 1.75095 9.80458 1.75095H5.20979C3.64256 1.75095 2.37207 3.02144 2.37207 4.58867V15.9093C2.37207 17.4765 3.64256 18.747 5.20979 18.747Z" fill="#463A95" stroke="#463A95" stroke-width="1.70263"/>
<path d="M6.58376 14.1035V6.83079H9.45308C10.0023 6.83079 10.4711 6.92904 10.8593 7.12553C11.25 7.31966 11.5471 7.59547 11.7507 7.95295C11.9566 8.30806 12.0596 8.72591 12.0596 9.2065C12.0596 9.68945 11.9554 10.1049 11.7471 10.4529C11.5388 10.7986 11.2369 11.0637 10.8416 11.2484C10.4486 11.4331 9.97273 11.5254 9.41402 11.5254H7.49285V10.2896H9.16544C9.459 10.2896 9.70284 10.2493 9.89697 10.1689C10.0911 10.0884 10.2355 9.96763 10.3302 9.80664C10.4273 9.64566 10.4758 9.44561 10.4758 9.2065C10.4758 8.96502 10.4273 8.76142 10.3302 8.5957C10.2355 8.42998 10.0899 8.30451 9.89342 8.21928C9.69929 8.13169 9.45426 8.08789 9.15834 8.08789H8.1214V14.1035H6.58376ZM10.5113 10.7939L12.3188 14.1035H10.6214L8.85294 10.7939H10.5113Z" fill="white"/>
<circle cx="16.6279" cy="17.2491" r="5.5" fill="white" stroke="#0057FF"/>
<g clip-path="url(#clip0_9552_1406)">
<path d="M13.5774 17.8591C13.5774 17.8591 13.6144 18.1181 14.6866 19.1903C15.7588 20.2625 17.4971 20.2625 18.5693 19.1903C18.9492 18.8104 19.1944 18.3469 19.3051 17.8591M14.9502 17.8591H13.5774V19.355M19.6785 16.6389C19.6785 16.6389 19.6415 16.3798 18.5693 15.3076C17.4971 14.2354 15.7588 14.2354 14.6866 15.3076C14.3067 15.6875 14.0614 16.151 13.9507 16.6389M18.3075 16.6389H19.6785V14.9375" stroke="#0057FF" stroke-linecap="round" stroke-linejoin="round"/>
</g>
<defs>
<clipPath id="clip0_9552_1406">
<rect width="7.32129" height="7.32129" fill="white" transform="translate(12.9673 13.5884)"/>
</clipPath>
</defs>
</svg>
