<svg width="24" height="24" viewBox="0 0 24 24" fill="none" xmlns="http://www.w3.org/2000/svg">
<path d="M5.20979 18.747H14.3816C15.9569 18.747 17.2306 17.464 17.2192 15.8888L17.1701 9.09479C17.1647 8.34918 16.8661 7.63565 16.3388 7.10848L11.8109 2.58183C11.2787 2.04981 10.5571 1.75095 9.80458 1.75095H5.20979C3.64256 1.75095 2.37207 3.02144 2.37207 4.58867V15.9093C2.37207 17.4765 3.64256 18.747 5.20979 18.747Z" fill="#7E57C2" stroke="#7E57C2" stroke-width="1.70263"/>
<path d="M6.66102 8.24405V6.9763H12.634V8.24405H10.4075V14.249H8.88758V8.24405H6.66102Z" fill="white"/>
<circle cx="16.6279" cy="17.2491" r="5.5" fill="white" stroke="#0057FF"/>
<g clip-path="url(#clip0_9552_1460)">
<path d="M13.5774 17.8591C13.5774 17.8591 13.6144 18.1181 14.6866 19.1903C15.7588 20.2625 17.4971 20.2625 18.5693 19.1903C18.9492 18.8104 19.1944 18.3469 19.3051 17.8591M14.9502 17.8591H13.5774V19.355M19.6785 16.6389C19.6785 16.6389 19.6415 16.3798 18.5693 15.3076C17.4971 14.2354 15.7588 14.2354 14.6866 15.3076C14.3067 15.6875 14.0614 16.151 13.9507 16.6389M18.3075 16.6389H19.6785V14.9375" stroke="#0057FF" stroke-linecap="round" stroke-linejoin="round"/>
</g>
<defs>
<clipPath id="clip0_9552_1460">
<rect width="7.32129" height="7.32129" fill="white" transform="translate(12.9673 13.5884)"/>
</clipPath>
</defs>
</svg>
