<svg width="24" height="24" viewBox="0 0 24 24" fill="none" xmlns="http://www.w3.org/2000/svg">
<g clip-path="url(#clip0_9552_1472)">
<path d="M12.2344 16.4753H21.3183C22.4285 16.4753 23.3262 15.571 23.3182 14.4608L23.2698 7.76674C23.266 7.24124 23.0555 6.73835 22.6839 6.36681L18.4034 2.08752C18.0284 1.71256 17.5197 1.50192 16.9894 1.50192H12.2344C11.1298 1.50192 10.2344 2.39735 10.2344 3.50192V14.4753C10.2344 15.5798 11.1298 16.4753 12.2344 16.4753Z" fill="#FF6600" stroke="#FF6600" stroke-width="1.5"/>
<path d="M20.3306 9.96219C20.3306 10.8346 20.1652 11.5768 19.8345 12.1888C19.5063 12.8007 19.0584 13.2682 18.4907 13.5911C17.9256 13.9114 17.2902 14.0716 16.5845 14.0716C15.8735 14.0716 15.2355 13.9101 14.6704 13.5872C14.1053 13.2643 13.6587 12.7968 13.3306 12.1848C13.0024 11.5729 12.8384 10.832 12.8384 9.96219C12.8384 9.08979 13.0024 8.34761 13.3306 7.73563C13.6587 7.12365 14.1053 6.6575 14.6704 6.33719C15.2355 6.01427 15.8735 5.85281 16.5845 5.85281C17.2902 5.85281 17.9256 6.01427 18.4907 6.33719C19.0584 6.6575 19.5063 7.12365 19.8345 7.73563C20.1652 8.34761 20.3306 9.08979 20.3306 9.96219ZM18.6157 9.96219C18.6157 9.39708 18.5311 8.92052 18.3618 8.5325C18.1951 8.14448 17.9595 7.85021 17.6548 7.64969C17.3501 7.44917 16.9933 7.34891 16.5845 7.34891C16.1756 7.34891 15.8188 7.44917 15.5142 7.64969C15.2095 7.85021 14.9725 8.14448 14.8032 8.5325C14.6366 8.92052 14.5532 9.39708 14.5532 9.96219C14.5532 10.5273 14.6366 11.0039 14.8032 11.3919C14.9725 11.7799 15.2095 12.0742 15.5142 12.2747C15.8188 12.4752 16.1756 12.5755 16.5845 12.5755C16.9933 12.5755 17.3501 12.4752 17.6548 12.2747C17.9595 12.0742 18.1951 11.7799 18.3618 11.3919C18.5311 11.0039 18.6157 10.5273 18.6157 9.96219Z" fill="white"/>
<path d="M7.00629 4.08556L8.44986 2.67606L7.096 1.18974" stroke="#0057FF" stroke-width="1.25" stroke-linecap="round" stroke-linejoin="round"/>
<path d="M8.07054 2.62908C4.72776 2.21864 2.58053 4.40677 2.29541 6.72891" stroke="#0057FF" stroke-width="1.25" stroke-linecap="round"/>
<path d="M2.9248 23.3085H12.0087C13.1189 23.3085 14.0167 22.4042 14.0086 21.294L13.9617 14.805C13.9569 14.1481 13.6938 13.5195 13.2293 13.0551L9.24029 9.06714C8.77146 8.59844 8.13568 8.33514 7.47276 8.33514H2.9248C1.82024 8.33514 0.924805 9.23058 0.924805 10.3351V21.3085C0.924805 22.4131 1.82023 23.3085 2.9248 23.3085Z" fill="#3782F5" stroke="#3782F5" stroke-width="1.5"/>
<path d="M11.6894 14.1408L9.9382 20.8214H8.7371L7.61852 16.8185C7.59102 16.7211 7.56046 16.6053 7.52684 16.4713C7.49322 16.3372 7.4596 16.2001 7.42598 16.06C7.39542 15.9199 7.36791 15.7919 7.34346 15.6762C7.32207 15.5574 7.30679 15.466 7.29762 15.402C7.29151 15.466 7.27775 15.5558 7.25636 15.6716C7.23497 15.7874 7.20899 15.9153 7.17843 16.0554C7.15092 16.1925 7.12036 16.3296 7.08674 16.4667C7.05312 16.6007 7.02256 16.7195 6.99505 16.8231L5.89481 20.8214H4.6983L2.95166 14.1408H4.05649L5.02378 18.0569C5.05435 18.1818 5.08491 18.3173 5.11547 18.4636C5.14909 18.6067 5.17965 18.7514 5.20716 18.8977C5.23772 19.0439 5.26523 19.1871 5.28968 19.3272C5.31413 19.4643 5.33399 19.5892 5.34927 19.7019C5.36455 19.5861 5.38442 19.4582 5.40887 19.318C5.43332 19.1749 5.4593 19.0302 5.4868 18.8839C5.51737 18.7347 5.54793 18.5915 5.57849 18.4544C5.61211 18.3173 5.64573 18.194 5.67935 18.0843L6.77042 14.1408H7.84316L8.95715 18.098C8.99077 18.2107 9.02286 18.3371 9.05342 18.4773C9.08704 18.6174 9.11913 18.7606 9.1497 18.9068C9.18026 19.053 9.20776 19.1947 9.23221 19.3318C9.25666 19.4688 9.27653 19.5922 9.29181 19.7019C9.3132 19.5526 9.34071 19.382 9.37433 19.1901C9.40795 18.9982 9.44615 18.8032 9.48894 18.6052C9.53172 18.4072 9.57451 18.2244 9.6173 18.0569L10.58 14.1408H11.6894Z" fill="white"/>
</g>
<defs>
<clipPath id="clip0_9552_1472">
<rect width="24" height="24" fill="white"/>
</clipPath>
</defs>
</svg>
