<svg width="24" height="24" viewBox="0 0 24 24" fill="none" xmlns="http://www.w3.org/2000/svg">
<g clip-path="url(#clip0_9552_1444)">
<path d="M11.6638 15.9776H20.7477C21.8579 15.9776 22.7557 15.0733 22.7477 13.9631L22.7007 7.47408C22.696 6.81721 22.4329 6.1886 21.9683 5.72417L17.9793 1.73624C17.5105 1.26754 16.8747 1.00424 16.2118 1.00424H11.6638C10.5592 1.00424 9.66382 1.89967 9.66382 3.00424V13.9776C9.66382 15.0822 10.5592 15.9776 11.6638 15.9776Z" fill="#8CB71B" stroke="#8CB71B" stroke-width="1.5"/>
<path d="M16.2127 11.2974L13.7269 8.811L16.2127 6.32522L17.0417 7.15377L15.384 8.811L16.2129 9.63983L18.6991 7.15406L16.5334 4.98837C16.3566 4.81129 16.0697 4.81129 15.8928 4.98837L12.3898 8.49092C12.2132 8.66799 12.2132 8.95489 12.3898 9.13181L15.8926 12.6344C16.0696 12.8113 16.3566 12.8113 16.5332 12.6344L20.0361 9.13167C20.2129 8.95474 20.2129 8.6677 20.0361 8.49106L19.5275 7.9829L16.2127 11.2974Z" fill="white"/>
<path d="M7.00629 4.08559L8.44986 2.67609L7.096 1.18977" stroke="#0057FF" stroke-width="1.25" stroke-linecap="round" stroke-linejoin="round"/>
<path d="M8.07054 2.62911C4.72776 2.21867 2.58053 4.4068 2.29541 6.72894" stroke="#0057FF" stroke-width="1.25" stroke-linecap="round"/>
<path d="M2.9248 23.3085H12.0087C13.1189 23.3085 14.0167 22.4043 14.0086 21.2941L13.9617 14.805C13.9569 14.1482 13.6938 13.5196 13.2293 13.0551L9.24029 9.0672C8.77146 8.59851 8.13568 8.33521 7.47276 8.33521H2.9248C1.82024 8.33521 0.924805 9.23064 0.924805 10.3352V21.3085C0.924805 22.4131 1.82023 23.3085 2.9248 23.3085Z" fill="#3782F5" stroke="#3782F5" stroke-width="1.5"/>
<path d="M11.843 14.1436L10.0918 20.8242H8.89067L7.77209 16.8213C7.74458 16.7239 7.71402 16.6081 7.6804 16.4741C7.64678 16.34 7.61316 16.2029 7.57955 16.0628C7.54898 15.9227 7.52148 15.7947 7.49703 15.679C7.47563 15.5602 7.46035 15.4688 7.45118 15.4048C7.44507 15.4688 7.43132 15.5586 7.40993 15.6744C7.38853 15.7902 7.36255 15.9181 7.33199 16.0582C7.30449 16.1953 7.27392 16.3324 7.2403 16.4695C7.20669 16.6035 7.17612 16.7223 7.14862 16.8259L6.04837 20.8242H4.85186L3.10522 14.1436H4.21005L5.17735 18.0597C5.20791 18.1846 5.23847 18.3201 5.26904 18.4664C5.30265 18.6095 5.33322 18.7542 5.36072 18.9005C5.39129 19.0467 5.41879 19.1899 5.44324 19.33C5.46769 19.4671 5.48756 19.592 5.50284 19.7047C5.51812 19.5889 5.53798 19.461 5.56243 19.3209C5.58688 19.1777 5.61286 19.033 5.64037 18.8868C5.67093 18.7375 5.70149 18.5943 5.73205 18.4572C5.76567 18.3201 5.79929 18.1968 5.83291 18.0871L6.92398 14.1436H7.99672L9.11072 18.1008C9.14434 18.2135 9.17643 18.3399 9.20699 18.4801C9.24061 18.6202 9.2727 18.7634 9.30326 18.9096C9.33382 19.0558 9.36133 19.1975 9.38578 19.3346C9.41023 19.4717 9.43009 19.595 9.44538 19.7047C9.46677 19.5554 9.49427 19.3848 9.52789 19.1929C9.56151 19.001 9.59971 18.806 9.6425 18.608C9.68529 18.41 9.72808 18.2272 9.77086 18.0597L10.7336 14.1436H11.843Z" fill="white"/>
</g>
<defs>
<clipPath id="clip0_9552_1444">
<rect width="24" height="24" fill="white"/>
</clipPath>
</defs>
</svg>
