<svg width="24" height="24" viewBox="0 0 24 24" fill="none" xmlns="http://www.w3.org/2000/svg">
<g clip-path="url(#clip0_6951_672)">
<path d="M12.1294 15.7441H21.2133C22.3235 15.7441 23.2213 14.8398 23.2132 13.7296L23.1663 7.24059C23.1615 6.58372 22.8984 5.95511 22.4339 5.49068L18.4449 1.50275C17.9761 1.03405 17.3403 0.770752 16.6773 0.770752H12.1294C11.0248 0.770752 10.1294 1.66618 10.1294 2.77075V13.7441C10.1294 14.8487 11.0248 15.7441 12.1294 15.7441Z" fill="#FF9900" stroke="#FF9900" stroke-width="1.5"/>
<path d="M13.7278 7.52169L11.1226 11.2848C10.8759 11.6412 10.7525 11.8193 10.7596 11.9675C10.7657 12.0965 10.8284 12.2163 10.931 12.2948C11.0489 12.3849 11.2656 12.3849 11.6989 12.3849H18.2474L14.8806 7.52169C14.6869 7.24201 14.5901 7.10216 14.4692 7.05301C14.3634 7.01 14.245 7.01 14.1392 7.05301C14.0183 7.10216 13.9214 7.24201 13.7278 7.52169Z" fill="white" stroke="white" stroke-width="0.948235" stroke-linecap="round" stroke-linejoin="round"/>
<path d="M20.3973 12.3893H16.5747L18.169 9.81013L18.495 9.32105C18.6901 9.02851 18.7876 8.88224 18.9105 8.83127C19.0179 8.78671 19.1387 8.78671 19.2462 8.83127C19.3691 8.88224 19.4666 9.02851 19.6616 9.32105L20.9805 11.2995L20.9805 11.2995C21.2166 11.6535 21.3346 11.8305 21.3258 11.9773C21.3182 12.1052 21.2549 12.2233 21.1528 12.3006C21.0355 12.3893 20.8228 12.3893 20.3973 12.3893H20.3973Z" fill="white" stroke="white" stroke-width="0.948235" stroke-linecap="round" stroke-linejoin="round"/>
<path d="M17.5087 6.75257C18.2347 6.75257 18.8231 6.1641 18.8231 5.43817C18.8231 4.71225 18.2347 4.12378 17.5087 4.12378C16.7828 4.12378 16.1943 4.71225 16.1943 5.43817C16.1943 6.1641 16.7828 6.75257 17.5087 6.75257Z" fill="white"/>
<path d="M7.00506 3.84979L8.44864 2.44028L7.09478 0.953958" stroke="#0057FF" stroke-width="1.25" stroke-linecap="round" stroke-linejoin="round"/>
<path d="M8.06907 2.39333C4.72629 1.98289 2.57907 4.17102 2.29395 6.49316" stroke="#0057FF" stroke-width="1.25" stroke-linecap="round"/>
<path d="M2.77002 23.0729H11.8539C12.9641 23.0729 13.8619 22.1687 13.8539 21.0585L13.8069 14.5695C13.8022 13.9126 13.5391 13.284 13.0745 12.8195L9.0855 8.83161C8.61668 8.36291 7.9809 8.09961 7.31797 8.09961H2.77002C1.66545 8.09961 0.77002 8.99504 0.77002 10.0996V21.0729C0.77002 22.1775 1.66545 23.0729 2.77002 23.0729Z" fill="#3782F5" stroke="#3782F5" stroke-width="1.5"/>
<path d="M11.688 12.4045L9.93674 19.0851H8.73564L7.61706 15.0823C7.58955 14.9848 7.55899 14.869 7.52537 14.735C7.49175 14.6009 7.45814 14.4639 7.42452 14.3237C7.39395 14.1836 7.36645 14.0557 7.342 13.9399C7.32061 13.8211 7.30532 13.7297 7.29616 13.6657C7.29004 13.7297 7.27629 13.8196 7.2549 13.9353C7.2335 14.0511 7.20752 14.179 7.17696 14.3192C7.14946 14.4562 7.11889 14.5933 7.08528 14.7304C7.05166 14.8645 7.02109 14.9833 6.99359 15.0868L5.89335 19.0851H4.69683L2.9502 12.4045H4.05502L5.02232 16.3206C5.05288 16.4455 5.08344 16.5811 5.11401 16.7273C5.14763 16.8705 5.17819 17.0152 5.20569 17.1614C5.23626 17.3076 5.26376 17.4508 5.28821 17.5909C5.31266 17.728 5.33253 17.8529 5.34781 17.9656C5.36309 17.8499 5.38295 17.7219 5.4074 17.5818C5.43185 17.4386 5.45783 17.2939 5.48534 17.1477C5.5159 16.9984 5.54646 16.8552 5.57703 16.7181C5.61064 16.5811 5.64426 16.4577 5.67788 16.348L6.76896 12.4045H7.84169L8.95569 16.3617C8.98931 16.4744 9.0214 16.6009 9.05196 16.741C9.08558 16.8811 9.11767 17.0243 9.14823 17.1705C9.17879 17.3168 9.2063 17.4584 9.23075 17.5955C9.2552 17.7326 9.27506 17.856 9.29035 17.9656C9.31174 17.8164 9.33925 17.6458 9.37286 17.4538C9.40648 17.2619 9.44469 17.067 9.48747 16.8689C9.53026 16.6709 9.57305 16.4881 9.61583 16.3206L10.5785 12.4045H11.688Z" fill="white"/>
</g>
<defs>
<clipPath id="clip0_6951_672">
<rect width="24" height="24" fill="white"/>
</clipPath>
</defs>
</svg>
