<svg width="24" height="24" viewBox="0 0 24 24" fill="none" xmlns="http://www.w3.org/2000/svg">
<g clip-path="url(#clip0_6951_659)">
<path d="M12.1294 15.7419H21.2133C22.3235 15.7419 23.2213 14.8376 23.2132 13.7274L23.1663 7.2384C23.1615 6.58152 22.8984 5.95291 22.4339 5.48848L18.4449 1.50055C17.9761 1.03185 17.3403 0.768555 16.6773 0.768555H12.1294C11.0248 0.768555 10.1294 1.66399 10.1294 2.76856V13.7419C10.1294 14.8465 11.0248 15.7419 12.1294 15.7419Z" fill="#E53935" stroke="#E53935" stroke-width="1.5"/>
<path d="M16.3415 5.41821C17.415 5.41821 18.1983 5.63745 18.6915 6.07594C19.1846 6.51442 19.4312 7.12868 19.4312 7.9187C19.4312 8.27781 19.3743 8.6199 19.2605 8.94498C19.1505 9.26629 18.9684 9.55168 18.7142 9.80116C18.4601 10.0469 18.1244 10.2415 17.7071 10.3852C17.2937 10.5288 16.7835 10.6006 16.1765 10.6006H15.2889V13.7078H13.9233V5.41821H16.3415ZM16.2505 6.54655H15.2889V9.46663H16.0343C16.4629 9.46663 16.8271 9.41749 17.1267 9.31921C17.4264 9.21714 17.654 9.05649 17.8095 8.83725C17.9651 8.61801 18.0428 8.32884 18.0428 7.96973C18.0428 7.48967 17.8968 7.13246 17.6047 6.8981C17.3164 6.66373 16.865 6.54655 16.2505 6.54655Z" fill="white"/>
<path d="M7.00458 3.84979L8.44815 2.44028L7.09429 0.953958" stroke="#0057FF" stroke-width="1.25" stroke-linecap="round" stroke-linejoin="round"/>
<path d="M8.06907 2.39333C4.72629 1.98289 2.57907 4.17102 2.29395 6.49316" stroke="#0057FF" stroke-width="1.25" stroke-linecap="round"/>
<path d="M2.77002 23.0729H11.8539C12.9641 23.0729 13.8619 22.1687 13.8539 21.0585L13.8069 14.5695C13.8022 13.9126 13.5391 13.284 13.0745 12.8195L9.0855 8.83161C8.61668 8.36291 7.9809 8.09961 7.31797 8.09961H2.77002C1.66545 8.09961 0.77002 8.99504 0.77002 10.0996V21.0729C0.77002 22.1775 1.66545 23.0729 2.77002 23.0729Z" fill="#3782F5" stroke="#3782F5" stroke-width="1.5"/>
<path d="M11.688 13.0588L9.93674 19.7394H8.73564L7.61706 15.7366C7.58955 15.6391 7.55899 15.5233 7.52537 15.3893C7.49175 15.2552 7.45814 15.1182 7.42452 14.978C7.39395 14.8379 7.36645 14.7099 7.342 14.5942C7.32061 14.4754 7.30532 14.384 7.29616 14.32C7.29004 14.384 7.27629 14.4739 7.2549 14.5896C7.2335 14.7054 7.20752 14.8333 7.17696 14.9735C7.14946 15.1105 7.11889 15.2476 7.08528 15.3847C7.05166 15.5188 7.02109 15.6376 6.99359 15.7411L5.89335 19.7394H4.69683L2.9502 13.0588H4.05502L5.02232 16.9749C5.05288 17.0998 5.08344 17.2354 5.11401 17.3816C5.14763 17.5248 5.17819 17.6695 5.20569 17.8157C5.23626 17.9619 5.26376 18.1051 5.28821 18.2452C5.31266 18.3823 5.33253 18.5072 5.34781 18.6199C5.36309 18.5042 5.38295 18.3762 5.4074 18.2361C5.43185 18.0929 5.45783 17.9482 5.48534 17.802C5.5159 17.6527 5.54646 17.5095 5.57703 17.3724C5.61064 17.2354 5.64426 17.112 5.67788 17.0023L6.76896 13.0588H7.84169L8.95569 17.016C8.98931 17.1287 9.0214 17.2552 9.05196 17.3953C9.08558 17.5354 9.11767 17.6786 9.14823 17.8248C9.17879 17.971 9.2063 18.1127 9.23075 18.2498C9.2552 18.3869 9.27506 18.5102 9.29035 18.6199C9.31174 18.4706 9.33925 18.3001 9.37286 18.1081C9.40648 17.9162 9.44469 17.7212 9.48747 17.5232C9.53026 17.3252 9.57305 17.1424 9.61583 16.9749L10.5785 13.0588H11.688Z" fill="white"/>
</g>
<defs>
<clipPath id="clip0_6951_659">
<rect width="24" height="24" fill="white"/>
</clipPath>
</defs>
</svg>
