<svg width="24" height="24" viewBox="0 0 24 24" fill="none" xmlns="http://www.w3.org/2000/svg">
<g clip-path="url(#clip0_6951_419)">
<path fill-rule="evenodd" clip-rule="evenodd" d="M6.92497 1.25C6.27678 1.25138 5.64228 1.6203 5.31598 2.18311L0.240916 11.0228C-0.0803053 11.5871 -0.0803053 12.3247 0.240916 12.889L5.31598 21.7287C5.64231 22.2915 6.27678 22.6605 6.92497 22.6618H17.0751C17.7232 22.6604 18.3577 22.2915 18.684 21.7287L23.7591 12.889C24.0803 12.3247 24.0803 11.5871 23.7591 11.0228L18.684 2.18311C18.3577 1.6203 17.7232 1.25127 17.0751 1.25H6.92497ZM7.01708 6.42131C7.03103 6.41993 7.04565 6.41993 7.05964 6.42131H8.81037C8.88787 6.42291 8.96304 6.46782 9.00174 6.53527L11.9717 11.8419C11.9866 11.8682 11.9962 11.8974 11.9999 11.9274C12.0036 11.8974 12.0132 11.8681 12.0281 11.8419L14.9909 6.53527C15.0309 6.46578 15.1096 6.42062 15.1894 6.42131H16.9401C17.0951 6.42268 17.2112 6.61847 17.1386 6.75609L14.2396 11.9559L17.1386 17.1486C17.2181 17.287 17.0992 17.4918 16.9401 17.4905H15.1894C15.1082 17.4898 15.029 17.4415 14.9909 17.3694L12.0281 12.0627C12.0132 12.0365 12.0035 12.0073 11.9999 11.9773C11.9962 12.0073 11.9866 12.0365 11.9717 12.0627L9.00174 17.3694C8.96481 17.4395 8.88923 17.4873 8.81037 17.4905H7.05964C6.90059 17.4918 6.78167 17.287 6.86119 17.1486L9.76018 11.9559L6.86119 6.75609C6.7917 6.63053 6.87648 6.44811 7.01708 6.42131Z" fill="#3498DB"/>
</g>
<defs>
<clipPath id="clip0_6951_419">
<rect width="24" height="24" fill="white"/>
</clipPath>
</defs>
</svg>
