<svg width="24" height="24" viewBox="0 0 24 24" fill="none" xmlns="http://www.w3.org/2000/svg">
<g clip-path="url(#clip0_6951_380)">
<path d="M19.2496 8.04264C21.6797 8.98288 23.25 10.4557 23.25 11.9786C23.25 13.5669 21.5718 15.1198 18.9924 16.0803C18.8561 16.1311 18.7164 16.1799 18.574 16.2271C18.6248 16.4568 18.6701 16.6823 18.7089 16.9031C19.2181 19.7941 18.826 22.1703 17.6191 22.9555C16.4506 23.7158 14.562 22.9689 12.6497 21.1195C12.4419 20.918 12.2391 20.71 12.0415 20.4957C11.8847 20.6662 11.7281 20.8288 11.572 20.9821C9.59781 22.9217 7.57042 23.7264 6.36245 22.9435C5.19292 22.1853 4.82538 19.9734 5.29598 17.1877C5.34741 16.885 5.40635 16.5839 5.47273 16.2849C5.26838 16.2193 5.06551 16.148 4.86432 16.0711C2.38306 15.118 0.75 13.546 0.75 11.9786C0.75 10.4612 2.27134 8.99821 4.65341 8.0648C4.91968 7.96049 5.198 7.86245 5.48618 7.77045C5.42444 7.49288 5.36899 7.21359 5.31988 6.93285C4.82628 4.09792 5.1736 1.83232 6.34622 1.06937C7.56913 0.273728 9.60577 1.12812 11.6376 3.15589C11.764 3.2823 11.8883 3.41132 12.0105 3.54291C12.1928 3.34502 12.3796 3.15234 12.5707 2.96506C14.5094 1.06881 16.4291 0.275519 17.6028 1.03635C18.827 1.82964 19.1855 4.2395 18.6372 7.23089C18.6029 7.41673 18.5656 7.60184 18.5253 7.78612C18.7686 7.86478 19.0101 7.95031 19.2496 8.04264ZM18.6901 15.0549C20.9171 14.2254 22.2889 12.9563 22.2889 11.9786C22.2889 11.0609 21.0189 9.86973 18.9367 9.06425C18.7214 8.98087 18.498 8.90196 18.2679 8.82698C17.991 9.8337 17.6216 10.8973 17.1728 11.984C17.643 13.0971 18.0274 14.1745 18.3122 15.1877C18.4408 15.1449 18.5671 15.1006 18.6901 15.0549ZM17.766 17.113C17.7309 16.9134 17.69 16.7094 17.6442 16.5012C16.7123 16.7433 15.6846 16.9207 14.5969 17.0291C13.9785 18.0353 13.3449 18.9414 12.7109 19.7208C12.9003 19.9256 13.0892 20.1192 13.2767 20.3006C14.9119 21.8822 16.4284 22.4819 17.1375 22.0205C17.4707 21.8037 17.7401 21.2625 17.8741 20.4506C18.0233 19.5471 17.9911 18.3913 17.766 17.113ZM8.42071 21.9408C9.19163 21.6347 10.0665 21.0264 10.9395 20.1686C11.0856 20.0247 11.2286 19.8768 11.3682 19.7249C10.7112 18.9324 10.0592 18.0275 9.43679 17.0429C8.34642 16.9435 7.32626 16.7787 6.40467 16.5496C6.34301 16.8277 6.28822 17.1077 6.24037 17.3892C5.83798 19.7714 6.13293 21.5476 6.84271 22.0076C7.1762 22.2237 7.72795 22.2158 8.42071 21.9408ZM5.1752 15.0488C5.35889 15.1191 5.54409 15.1842 5.73064 15.2442C6.01483 14.2028 6.38944 13.1095 6.84092 12.0049C6.39521 10.9166 6.02588 9.84041 5.74428 8.81108C5.48382 8.89386 5.22557 8.98519 4.96987 9.08495C2.93263 9.88328 1.71112 11.0579 1.71112 11.9786C1.71112 12.4114 1.99292 12.9447 2.55095 13.4819C3.17201 14.0796 4.07806 14.6273 5.1752 15.0488ZM6.26318 6.72535C6.30889 6.98649 6.36045 7.24619 6.41782 7.50442C7.34906 7.26726 8.36206 7.09021 9.42026 6.97996C10.0373 6.00111 10.6833 5.10296 11.3369 4.31403C11.2241 4.19282 11.1115 4.07564 10.9994 3.96372C9.24501 2.21296 7.58058 1.51458 6.82778 2.00434C6.12108 2.46411 5.84027 4.29635 6.26318 6.72535ZM15.9686 9.41892C16.1922 9.85269 16.408 10.2914 16.6159 10.7349C16.9005 9.98613 17.1422 9.25574 17.336 8.55725C16.6902 8.3915 16.0024 8.25607 15.2844 8.15423C15.5206 8.57022 15.7487 8.99188 15.9686 9.41892ZM12.0108 5.08606C11.5605 5.63211 11.1127 6.23402 10.6755 6.88192C11.5615 6.83532 12.4489 6.83554 13.3348 6.88259C12.8981 6.22865 12.4541 5.62585 12.0108 5.08606ZM8.02748 9.42631C8.2485 8.9956 8.47848 8.57078 8.71725 8.15221C8.00398 8.25238 7.31939 8.38434 6.67741 8.54584C6.87298 9.25429 7.11247 9.98792 7.39238 10.7341C7.595 10.2927 7.80676 9.85662 8.02748 9.42631ZM8.73776 15.8822C8.49314 15.4556 8.25761 15.0226 8.03136 14.5835C7.80964 14.153 7.59695 13.7166 7.39347 13.2749C7.10759 14.0371 6.86283 14.7865 6.66417 15.5075C7.30594 15.6645 8.00089 15.7897 8.73776 15.8822ZM12.0373 18.9476C12.4777 18.4026 12.9201 17.7906 13.3582 17.1214C12.912 17.1437 12.4587 17.1553 12 17.1553C11.5536 17.1553 11.1144 17.1456 10.6836 17.1266C11.1274 17.7839 11.5818 18.395 12.0373 18.9476ZM16.625 13.2361C16.4164 13.6881 16.1988 14.1348 15.9725 14.576C15.7499 15.01 15.5196 15.4391 15.2818 15.8628C16.0239 15.7628 16.7282 15.628 17.3806 15.4607C17.1793 14.7519 16.9258 14.0065 16.625 13.2361ZM15.1399 14.0363C15.4836 13.3671 15.8062 12.6843 16.1068 11.9893C15.8031 11.3013 15.4796 10.6245 15.1368 9.96017C14.7959 9.29753 14.4343 8.64863 14.0527 8.01466C13.3837 7.95736 12.6967 7.92737 12.0001 7.92737C11.3065 7.92737 10.6205 7.95714 9.9513 8.01399C9.56579 8.64894 9.20187 9.30011 8.86034 9.9661C8.5187 10.6319 8.19946 11.3118 7.90331 12.0046C8.20022 12.6972 8.52042 13.3769 8.86323 14.0422C9.20764 14.7111 9.57445 15.365 9.96286 16.0027C10.6188 16.0505 11.2999 16.075 12 16.075C12.703 16.075 13.3929 16.0474 14.0604 15.9938C14.439 15.3546 14.799 14.7018 15.1399 14.0363ZM17.1227 1.97222C16.4153 1.51369 14.8628 2.15521 13.2017 3.78006C13.0253 3.95302 12.8528 4.13088 12.6843 4.31347C13.3274 5.09221 13.9679 5.99194 14.5862 6.98142C15.6475 7.09334 16.6612 7.27353 17.5946 7.51561C17.631 7.34873 17.6648 7.18112 17.6958 7.01287C18.1692 4.43009 17.8761 2.46064 17.1227 1.97222ZM12.0485 9.45191C13.2434 9.45191 14.2119 10.5013 14.2119 11.7956C14.2119 13.0901 13.2434 14.1394 12.0485 14.1394C10.8537 14.1394 9.88501 13.0901 9.88501 11.7956C9.88501 10.5013 10.8537 9.45191 12.0485 9.45191Z" fill="#53C1DE"/>
</g>
<defs>
<clipPath id="clip0_6951_380">
<rect width="24" height="24" fill="white"/>
</clipPath>
</defs>
</svg>
