<svg width="24" height="24" viewBox="0 0 24 24" fill="none" xmlns="http://www.w3.org/2000/svg">
<g clip-path="url(#clip0_10179_5225)">
<path d="M7.00116 3.84429L8.44473 2.43479L7.09087 0.948464" stroke="#0057FF" stroke-width="1.25" stroke-linecap="round" stroke-linejoin="round"/>
<path d="M8.06573 2.38788C4.72212 1.97733 2.57443 4.1654 2.28931 6.48755" stroke="#0057FF" stroke-width="1.25" stroke-linecap="round"/>
<path d="M12.1291 16.679H21.213C22.3233 16.679 23.221 15.7748 23.213 14.6646L23.166 8.17553C23.1613 7.51866 22.8982 6.89004 22.4336 6.42561L18.4446 2.43768C17.9758 1.96899 17.34 1.70569 16.6771 1.70569H12.1292C11.0246 1.70569 10.1292 2.60112 10.1292 3.70569V14.679C10.1292 15.7836 11.0246 16.679 12.1291 16.679Z" fill="#FF9900" stroke="#FF9900" stroke-width="1.5"/>
<path d="M13.7276 8.45651L11.1223 12.2197C10.8756 12.576 10.7523 12.7541 10.7593 12.9023C10.7654 13.0313 10.8282 13.1511 10.9308 13.2296C11.0486 13.3197 11.2653 13.3197 11.6987 13.3197H18.2471L14.8803 8.45651C14.6867 8.17682 14.5899 8.03698 14.4689 7.98782C14.3631 7.94482 14.2447 7.94482 14.1389 7.98782C14.018 8.03698 13.9212 8.17682 13.7276 8.45651Z" fill="white" stroke="white" stroke-width="0.948235" stroke-linecap="round" stroke-linejoin="round"/>
<path d="M20.397 13.3244H16.5745L18.1687 10.7452L18.4948 10.2561C18.6898 9.96357 18.7873 9.8173 18.9102 9.76633C19.0177 9.72177 19.1385 9.72177 19.2459 9.76633C19.3688 9.8173 19.4663 9.96357 19.6614 10.2561L20.9803 12.2345L20.9803 12.2345C21.2163 12.5885 21.3343 12.7656 21.3256 12.9124C21.3179 13.0402 21.2547 13.1584 21.1525 13.2357C21.0353 13.3244 20.8225 13.3244 20.397 13.3244H20.397Z" fill="white" stroke="white" stroke-width="0.948235" stroke-linecap="round" stroke-linejoin="round"/>
<path d="M17.5085 7.68751C18.2344 7.68751 18.8229 7.09903 18.8229 6.37311C18.8229 5.64719 18.2344 5.05872 17.5085 5.05872C16.7826 5.05872 16.1941 5.64719 16.1941 6.37311C16.1941 7.09903 16.7826 7.68751 17.5085 7.68751Z" fill="white"/>
<path d="M2.76977 23.2299H11.8537C12.9639 23.2299 13.8616 22.3257 13.8536 21.2155L13.8067 14.7264C13.8019 14.0696 13.5388 13.4409 13.0743 12.9765L9.08526 8.98859C8.61643 8.51989 7.98065 8.25659 7.31773 8.25659H2.76978C1.66521 8.25659 0.769775 9.15202 0.769775 10.2566V21.2299C0.769775 22.3345 1.6652 23.2299 2.76977 23.2299Z" fill="#E46330" stroke="#E46330" stroke-width="1.5"/>
<rect x="3.03271" y="13.4827" width="2.52344" height="6.10938" rx="0.4" fill="white"/>
<rect x="6.05615" y="11.8889" width="2.52344" height="7.70312" rx="0.4" fill="white"/>
<rect x="9.07959" y="14.5334" width="2.52344" height="5.05859" rx="0.4" fill="white"/>
</g>
<defs>
<clipPath id="clip0_10179_5225">
<rect width="24" height="24" fill="white"/>
</clipPath>
</defs>
</svg>
