<svg width="24" height="24" viewBox="0 0 24 24" fill="none" xmlns="http://www.w3.org/2000/svg">
<g clip-path="url(#clip0_6951_326)">
<path d="M6.65413 4.10271L8.17849 2.78042L6.91428 1.21665" stroke="#091321" stroke-width="1.5" stroke-linecap="round" stroke-linejoin="round"/>
<path d="M7.80291 2.71103C4.48865 2.10418 2.21541 4.16235 1.79395 6.46411" stroke="#091321" stroke-width="1.5" stroke-linecap="round"/>
<path d="M17.2342 20.1224L15.6199 21.3334L16.7701 22.9828" stroke="#091321" stroke-width="1.5" stroke-linecap="round" stroke-linejoin="round"/>
<path d="M15.9897 21.4291C19.2526 22.2693 21.666 20.3774 22.2495 18.1113" stroke="#091321" stroke-width="1.5" stroke-linecap="round"/>
<path d="M12.1274 16.4676H21.2171C22.3273 16.4676 23.225 15.5633 23.217 14.4531L23.1685 7.75744C23.1647 7.23185 22.9542 6.72889 22.5824 6.35733L18.2998 2.07688C17.9247 1.70203 17.4162 1.49146 16.8859 1.49146H12.1274C11.0229 1.49146 10.1274 2.38688 10.1274 3.49145V14.4676C10.1274 15.5722 11.0229 16.4676 12.1274 16.4676Z" fill="url(#paint0_linear_6951_326)"/>
<path d="M12.7524 7.47363H18.7524" stroke="white" stroke-width="1.5" stroke-linecap="round" stroke-linejoin="round"/>
<path d="M12.7524 10.4854H16.7524" stroke="white" stroke-width="1.5" stroke-linecap="round" stroke-linejoin="round"/>
<path d="M2.76807 23.0177H11.8577C12.9679 23.0177 13.8657 22.1134 13.8576 21.0032L13.8092 14.3075C13.8054 13.7819 13.5948 13.2789 13.2231 12.9074L8.94039 8.62692C8.56535 8.25208 8.0568 8.0415 7.52655 8.0415H2.76807C1.6635 8.0415 0.768066 8.93693 0.768066 10.0415V21.0177C0.768066 22.1222 1.6635 23.0177 2.76807 23.0177Z" fill="url(#paint1_linear_6951_326)"/>
<path d="M3.39307 14.0237H9.39307" stroke="white" stroke-width="1.5" stroke-linecap="round" stroke-linejoin="round"/>
<path d="M3.39307 17.0354H7.39307" stroke="white" stroke-width="1.5" stroke-linecap="round" stroke-linejoin="round"/>
</g>
<defs>
<linearGradient id="paint0_linear_6951_326" x1="16.6795" y1="1.49146" x2="16.6795" y2="16.4676" gradientUnits="userSpaceOnUse">
<stop stop-color="#6DA6FD"/>
<stop offset="1" stop-color="#1D6DE7"/>
</linearGradient>
<linearGradient id="paint1_linear_6951_326" x1="7.32013" y1="8.0415" x2="7.32013" y2="23.0177" gradientUnits="userSpaceOnUse">
<stop stop-color="#6DA6FD"/>
<stop offset="1" stop-color="#1D6DE7"/>
</linearGradient>
<clipPath id="clip0_6951_326">
<rect width="24" height="24" fill="white"/>
</clipPath>
</defs>
</svg>
