<svg width="24" height="24" viewBox="0 0 24 24" fill="none" xmlns="http://www.w3.org/2000/svg">
<g clip-path="url(#clip0_10179_5213)">
<path d="M7.00604 3.84588L8.44961 2.43637L7.09575 0.950051" stroke="#0057FF" stroke-width="1.25" stroke-linecap="round" stroke-linejoin="round"/>
<path d="M8.07061 2.38946C4.727 1.97892 2.57931 4.16699 2.29419 6.48914" stroke="#0057FF" stroke-width="1.25" stroke-linecap="round"/>
<path d="M12.1291 16.679H21.213C22.3233 16.679 23.221 15.7748 23.213 14.6646L23.1646 7.97051C23.1608 7.44501 22.9503 6.94212 22.5786 6.57057L18.2982 2.29129C17.9231 1.91633 17.4145 1.70569 16.8842 1.70569H12.1292C11.0246 1.70569 10.1292 2.60112 10.1292 3.70569V14.679C10.1292 15.7836 11.0246 16.679 12.1291 16.679Z" fill="#7E57C2" stroke="#7E57C2" stroke-width="1.5"/>
<path d="M17.1662 5.69397H18.4182V11.9888C18.4182 12.5581 18.3125 13.0451 18.1011 13.4498C17.8925 13.8544 17.5984 14.1636 17.219 14.3775C16.8396 14.5885 16.3952 14.694 15.8857 14.694C15.4169 14.694 14.9954 14.6029 14.6215 14.4208C14.2502 14.2388 13.9562 13.9743 13.7394 13.6275C13.5253 13.2778 13.4182 12.8529 13.4182 12.3529H14.6662C14.6662 12.5986 14.719 12.811 14.8247 12.9902C14.9331 13.1694 15.0808 13.3096 15.2678 13.4107C15.4575 13.509 15.6743 13.5581 15.9182 13.5581C16.1838 13.5581 16.4087 13.4989 16.593 13.3804C16.78 13.259 16.9223 13.0813 17.0198 12.8471C17.1174 12.613 17.1662 12.3269 17.1662 11.9888V5.69397Z" fill="white"/>
<path d="M2.76977 23.1682H11.8537C12.9639 23.1682 13.8616 22.2639 13.8536 21.1537L13.8052 14.4596C13.8014 13.9341 13.5909 13.4313 13.2193 13.0597L8.93882 8.78042C8.56376 8.40546 8.05513 8.19482 7.52479 8.19482H2.76978C1.66521 8.19482 0.769775 9.09026 0.769775 10.1948V21.1682C0.769775 22.2727 1.6652 23.1682 2.76977 23.1682Z" fill="#03A63F" stroke="#03A63F" stroke-width="1.5"/>
<path d="M5.27615 13.1472L7.01348 16.0364H7.07512L8.82016 13.1472H10.4496L8.0189 17.0919L10.4882 21.0365H8.83172L7.07512 18.1666H7.01348L5.25689 21.0365H3.60815L6.10052 17.0919L3.63897 13.1472H5.27615Z" fill="white"/>
</g>
<defs>
<clipPath id="clip0_10179_5213">
<rect width="24" height="24" fill="white"/>
</clipPath>
</defs>
</svg>
