<svg width="24" height="24" viewBox="0 0 24 24" fill="none" xmlns="http://www.w3.org/2000/svg">
<g clip-path="url(#clip0_10179_5201)">
<path d="M7.00116 3.84698L8.44473 2.43747L7.09087 0.951149" stroke="#0057FF" stroke-width="1.25" stroke-linecap="round" stroke-linejoin="round"/>
<path d="M8.06573 2.39056C4.72212 1.98002 2.57443 4.16809 2.28931 6.49023" stroke="#0057FF" stroke-width="1.25" stroke-linecap="round"/>
<path d="M12.1291 16.6792H21.213C22.3233 16.6792 23.221 15.7749 23.213 14.6647L23.166 8.17565C23.1613 7.51878 22.8982 6.89017 22.4336 6.42574L18.4446 2.43781C17.9758 1.96911 17.34 1.70581 16.6771 1.70581H12.1292C11.0246 1.70581 10.1292 2.60124 10.1292 3.70581V14.6792C10.1292 15.7837 11.0246 16.6792 12.1291 16.6792Z" fill="#4A90E2" stroke="#4A90E2" stroke-width="1.5"/>
<path d="M19.9537 8.7263H18.797C18.7525 8.48908 18.6697 8.28032 18.5486 8.10004C18.4275 7.91975 18.2792 7.76674 18.1037 7.64102C17.9282 7.51529 17.7317 7.4204 17.5143 7.35635C17.2992 7.2923 17.0706 7.26028 16.8284 7.26028C16.3909 7.26028 15.9992 7.36584 15.6532 7.57697C15.3096 7.78809 15.0378 8.09766 14.8376 8.50568C14.6398 8.9137 14.541 9.41186 14.541 10.0002C14.541 10.5932 14.6398 11.0938 14.8376 11.5018C15.0378 11.9098 15.3109 12.2182 15.6569 12.4269C16.0029 12.6357 16.3922 12.7401 16.8247 12.7401C17.0644 12.7401 17.2918 12.7092 17.5068 12.6475C17.7243 12.5835 17.9208 12.4898 18.0963 12.3664C18.2718 12.2431 18.4201 12.0925 18.5412 11.9145C18.6648 11.7343 18.75 11.5279 18.797 11.2954L19.9537 11.299C19.8919 11.6572 19.772 11.9869 19.5941 12.2882C19.4186 12.5871 19.1924 12.8456 18.9156 13.0639C18.6413 13.2797 18.3274 13.447 17.974 13.5656C17.6205 13.6842 17.235 13.7435 16.8173 13.7435C16.1598 13.7435 15.5741 13.5941 15.06 13.2952C14.5459 12.9939 14.1406 12.5633 13.844 12.0035C13.5499 11.4437 13.4028 10.7759 13.4028 10.0002C13.4028 9.22209 13.5511 8.55431 13.8477 7.99685C14.1443 7.43701 14.5496 7.00764 15.0637 6.70874C15.5778 6.40747 16.1623 6.25684 16.8173 6.25684C17.2201 6.25684 17.5958 6.31258 17.9443 6.42408C18.2953 6.5332 18.6104 6.69451 18.8897 6.90801C19.169 7.11913 19.4 7.3777 19.5829 7.68372C19.7658 7.98736 19.8894 8.33488 19.9537 8.7263Z" fill="white"/>
<path d="M2.76977 23.1661H11.8537C12.9639 23.1661 13.8616 22.2618 13.8536 21.1516L13.8052 14.4576C13.8014 13.9321 13.5909 13.4292 13.2193 13.0576L8.93882 8.77835C8.56376 8.40339 8.05513 8.19275 7.52479 8.19275H2.76978C1.66521 8.19275 0.769775 9.08818 0.769775 10.1928V21.1661C0.769775 22.2707 1.6652 23.1661 2.76977 23.1661Z" fill="#03A63F" stroke="#03A63F" stroke-width="1.5"/>
<path d="M5.27615 13.1451L7.01348 16.0343H7.07512L8.82016 13.1451H10.4496L8.0189 17.0898L10.4882 21.0344H8.83172L7.07512 18.1645H7.01348L5.25689 21.0344H3.60815L6.10052 17.0898L3.63897 13.1451H5.27615Z" fill="white"/>
</g>
<defs>
<clipPath id="clip0_10179_5201">
<rect width="24" height="24" fill="white"/>
</clipPath>
</defs>
</svg>
