<svg width="24" height="24" viewBox="0 0 24 24" fill="none" xmlns="http://www.w3.org/2000/svg">
<g clip-path="url(#clip0_10179_5243)">
<path d="M7.00262 3.84624L8.44619 2.43674L7.09234 0.950417" stroke="#0057FF" stroke-width="1.25" stroke-linecap="round" stroke-linejoin="round"/>
<path d="M8.0672 2.38983C4.72358 1.97928 2.5759 4.16736 2.29077 6.4895" stroke="#0057FF" stroke-width="1.25" stroke-linecap="round"/>
<path d="M12.1291 16.68H21.213C22.3233 16.68 23.221 15.7757 23.213 14.6655L23.1646 7.97148C23.1608 7.44598 22.9503 6.94309 22.5786 6.57155L18.2982 2.29226C17.9231 1.91731 17.4145 1.70667 16.8842 1.70667H12.1292C11.0246 1.70667 10.1292 2.6021 10.1292 3.70667V14.68C10.1292 15.7846 11.0246 16.68 12.1291 16.68Z" fill="#2FAF8F" stroke="#2FAF8F" stroke-width="1.5"/>
<path d="M20.2253 10.1669C20.2253 11.0393 20.06 11.7815 19.7292 12.3934C19.4011 13.0054 18.9532 13.4729 18.3855 13.7958C17.8204 14.1161 17.185 14.2762 16.4792 14.2762C15.7683 14.2762 15.1303 14.1148 14.5652 13.7919C14.0001 13.469 13.5535 13.0015 13.2253 12.3895C12.8972 11.7775 12.7332 11.0367 12.7332 10.1669C12.7332 9.29447 12.8972 8.55229 13.2253 7.94031C13.5535 7.32833 14.0001 6.86218 14.5652 6.54187C15.1303 6.21895 15.7683 6.05749 16.4792 6.05749C17.185 6.05749 17.8204 6.21895 18.3855 6.54187C18.9532 6.86218 19.4011 7.32833 19.7292 7.94031C20.06 8.55229 20.2253 9.29447 20.2253 10.1669ZM18.5105 10.1669C18.5105 9.60177 18.4259 9.1252 18.2566 8.73718C18.0899 8.34916 17.8542 8.05489 17.5496 7.85437C17.2449 7.65385 16.8881 7.55359 16.4792 7.55359C16.0704 7.55359 15.7136 7.65385 15.4089 7.85437C15.1042 8.05489 14.8673 8.34916 14.698 8.73718C14.5313 9.1252 14.448 9.60177 14.448 10.1669C14.448 10.732 14.5313 11.2085 14.698 11.5966C14.8673 11.9846 15.1042 12.2788 15.4089 12.4794C15.7136 12.6799 16.0704 12.7802 16.4792 12.7802C16.8881 12.7802 17.2449 12.6799 17.5496 12.4794C17.8542 12.2788 18.0899 11.9846 18.2566 11.5966C18.4259 11.2085 18.5105 10.732 18.5105 10.1669Z" fill="white"/>
<path d="M2.76977 23.1651H11.8537C12.9639 23.1651 13.8616 22.2608 13.8536 21.1506L13.8052 14.4566C13.8014 13.9311 13.5909 13.4282 13.2193 13.0567L8.93882 8.77737C8.56376 8.40241 8.05513 8.19177 7.52479 8.19177H2.76978C1.66521 8.19177 0.769775 9.0872 0.769775 10.1918V21.1651C0.769775 22.2697 1.6652 23.1651 2.76977 23.1651Z" fill="#03A63F" stroke="#03A63F" stroke-width="1.5"/>
<path d="M5.27615 13.1442L7.01348 16.0333H7.07512L8.82016 13.1442H10.4496L8.0189 17.0888L10.4882 21.0334H8.83172L7.07512 18.1636H7.01348L5.25689 21.0334H3.60815L6.10052 17.0888L3.63897 13.1442H5.27615Z" fill="white"/>
</g>
<defs>
<clipPath id="clip0_10179_5243">
<rect width="24" height="24" fill="white"/>
</clipPath>
</defs>
</svg>
