<svg width="24" height="24" viewBox="0 0 24 24" fill="none" xmlns="http://www.w3.org/2000/svg">
<g clip-path="url(#clip0_10179_5255)">
<path d="M7.00116 3.84429L8.44473 2.43479L7.09087 0.948464" stroke="#0057FF" stroke-width="1.25" stroke-linecap="round" stroke-linejoin="round"/>
<path d="M8.06573 2.38788C4.72212 1.97733 2.57443 4.1654 2.28931 6.48755" stroke="#0057FF" stroke-width="1.25" stroke-linecap="round"/>
<path d="M12.1291 16.6781H21.213C22.3233 16.6781 23.221 15.7738 23.213 14.6636L23.166 8.17455C23.1613 7.51768 22.8982 6.88907 22.4336 6.42464L18.4446 2.43671C17.9758 1.96801 17.34 1.70471 16.6771 1.70471H12.1292C11.0246 1.70471 10.1292 2.60014 10.1292 3.70471V14.6781C10.1292 15.7826 11.0246 16.6781 12.1291 16.6781Z" fill="#FF9900" stroke="#FF9900" stroke-width="1.5"/>
<path d="M13.7276 8.45553L11.1223 12.2187C10.8756 12.575 10.7523 12.7532 10.7593 12.9013C10.7654 13.0304 10.8282 13.1501 10.9308 13.2286C11.0486 13.3187 11.2653 13.3187 11.6987 13.3187H18.2471L14.8803 8.45553C14.6867 8.17585 14.5899 8.036 14.4689 7.98684C14.3631 7.94384 14.2447 7.94384 14.1389 7.98684C14.018 8.036 13.9212 8.17584 13.7276 8.45553Z" fill="white" stroke="white" stroke-width="0.948235" stroke-linecap="round" stroke-linejoin="round"/>
<path d="M20.397 13.3234H16.5745L18.1687 10.7442L18.4948 10.2551C18.6898 9.96259 18.7873 9.81632 18.9102 9.76535C19.0177 9.72079 19.1385 9.72079 19.2459 9.76535C19.3688 9.81632 19.4663 9.96259 19.6614 10.2551L20.9803 12.2335L20.9803 12.2335C21.2163 12.5876 21.3343 12.7646 21.3256 12.9114C21.3179 13.0393 21.2547 13.1574 21.1525 13.2347C21.0353 13.3234 20.8225 13.3234 20.397 13.3234H20.397Z" fill="white" stroke="white" stroke-width="0.948235" stroke-linecap="round" stroke-linejoin="round"/>
<path d="M17.5085 7.68653C18.2344 7.68653 18.8229 7.09806 18.8229 6.37213C18.8229 5.64621 18.2344 5.05774 17.5085 5.05774C16.7826 5.05774 16.1941 5.64621 16.1941 6.37213C16.1941 7.09806 16.7826 7.68653 17.5085 7.68653Z" fill="white"/>
<path d="M2.76977 23.2298H11.8537C12.9639 23.2298 13.8616 22.3255 13.8536 21.2153L13.8052 14.5213C13.8014 13.9958 13.5909 13.4929 13.2193 13.1214L8.93882 8.84207C8.56376 8.46711 8.05513 8.25647 7.52479 8.25647H2.76978C1.66521 8.25647 0.769775 9.1519 0.769775 10.2565V21.2298C0.769775 22.3344 1.6652 23.2298 2.76977 23.2298Z" fill="#03A63F" stroke="#03A63F" stroke-width="1.5"/>
<path d="M5.27615 13.2089L7.01348 16.098H7.07512L8.82016 13.2089H10.4496L8.0189 17.1535L10.4882 21.0981H8.83172L7.07512 18.2283H7.01348L5.25689 21.0981H3.60815L6.10052 17.1535L3.63897 13.2089H5.27615Z" fill="white"/>
</g>
<defs>
<clipPath id="clip0_10179_5255">
<rect width="24" height="24" fill="white"/>
</clipPath>
</defs>
</svg>
