<svg width="24" height="24" viewBox="0 0 24 24" fill="none" xmlns="http://www.w3.org/2000/svg">
<g clip-path="url(#clip0_10179_5270)">
<path d="M7.00287 3.84319L8.44644 2.43369L7.09258 0.947365" stroke="#0057FF" stroke-width="1.25" stroke-linecap="round" stroke-linejoin="round"/>
<path d="M8.06744 2.38678C4.72382 1.97623 2.57614 4.1643 2.29102 6.48645" stroke="#0057FF" stroke-width="1.25" stroke-linecap="round"/>
<path d="M12.6294 16.724H20.7097C22.0974 16.724 23.2196 15.5936 23.2096 14.2059L23.1663 8.22045C23.1615 7.56358 22.8984 6.93497 22.4339 6.47054L18.4449 2.48261C17.9761 2.01391 17.3403 1.75061 16.6773 1.75061H12.6294C11.2487 1.75061 10.1294 2.8699 10.1294 4.25061V14.224C10.1294 15.6047 11.2487 16.724 12.6294 16.724Z" fill="#EF552E" stroke="#EF552E" stroke-width="1.5"/>
<path d="M19.1777 12.2784L21.2611 10.1951L19.1777 8.11174M15.0111 8.11174L12.9277 10.1951L15.0111 12.2784M17.9277 6.44507L16.2611 13.9451" stroke="white" stroke-width="1.1" stroke-linecap="round" stroke-linejoin="round"/>
<path d="M2.77002 23.2272H11.8539C12.9641 23.2272 13.8619 22.323 13.8539 21.2128L13.8054 14.5187C13.8016 13.9932 13.5911 13.4903 13.2195 13.1188L8.93906 8.8395C8.564 8.46455 8.05538 8.25391 7.52504 8.25391H2.77002C1.66545 8.25391 0.77002 9.14934 0.77002 10.2539V21.2272C0.77002 22.3318 1.66545 23.2272 2.77002 23.2272Z" fill="#03A63F" stroke="#03A63F" stroke-width="1.5"/>
<path d="M5.27639 13.2063L7.01373 16.0954H7.07536L8.8204 13.2063H10.4499L8.01915 17.1509L10.4884 21.0956H8.83196L7.07536 18.2257H7.01373L5.25713 21.0956H3.6084L6.10076 17.1509L3.63922 13.2063H5.27639Z" fill="white"/>
</g>
<defs>
<clipPath id="clip0_10179_5270">
<rect width="24" height="24" fill="white"/>
</clipPath>
</defs>
</svg>
