<svg width="24" height="24" viewBox="0 0 24 24" fill="none" xmlns="http://www.w3.org/2000/svg">
<g clip-path="url(#clip0_10179_5282)">
<path d="M12.1294 15.7418H21.2133C22.3235 15.7418 23.2213 14.8375 23.2132 13.7273L23.1663 7.23827C23.1615 6.5814 22.8984 5.95279 22.4339 5.48836L18.4449 1.50043C17.9761 1.03173 17.3403 0.768433 16.6773 0.768433H12.1294C11.0248 0.768433 10.1294 1.66386 10.1294 2.76843V13.7418C10.1294 14.8463 11.0248 15.7418 12.1294 15.7418Z" fill="#E53935" stroke="#E53935" stroke-width="1.5"/>
<path d="M16.343 5.41821C17.4165 5.41821 18.1998 5.63745 18.6929 6.07594C19.1861 6.51442 19.4326 7.12868 19.4326 7.9187C19.4326 8.27781 19.3757 8.6199 19.2619 8.94498C19.1519 9.26629 18.9698 9.55168 18.7157 9.80116C18.4615 10.0469 18.1258 10.2415 17.7086 10.3852C17.2951 10.5288 16.7849 10.6006 16.178 10.6006H15.2904V13.7078H13.9248V5.41821H16.343ZM16.252 6.54655H15.2904V9.46663H16.0358C16.4644 9.46663 16.8285 9.41749 17.1282 9.31921C17.4279 9.21714 17.6555 9.05649 17.811 8.83725C17.9665 8.61801 18.0443 8.32884 18.0443 7.96973C18.0443 7.48967 17.8982 7.13246 17.6062 6.8981C17.3179 6.66373 16.8665 6.54655 16.252 6.54655Z" fill="white"/>
<path d="M7.00506 3.84979L8.44864 2.44028L7.09478 0.953958" stroke="#0057FF" stroke-width="1.25" stroke-linecap="round" stroke-linejoin="round"/>
<path d="M8.06932 2.39333C4.72654 1.98289 2.57931 4.17102 2.29419 6.49316" stroke="#0057FF" stroke-width="1.25" stroke-linecap="round"/>
<path d="M2.77002 23.0737H11.8539C12.9641 23.0737 13.8619 22.1694 13.8539 21.0592L13.8054 14.3652C13.8016 13.8397 13.5911 13.3368 13.2195 12.9652L8.93906 8.68594C8.564 8.31098 8.05538 8.10034 7.52504 8.10034H2.77002C1.66545 8.10034 0.77002 8.99577 0.77002 10.1003V21.0737C0.77002 22.1783 1.66545 23.0737 2.77002 23.0737Z" fill="#03A63F" stroke="#03A63F" stroke-width="1.5"/>
<path d="M5.27639 13.0527L7.01373 15.9419H7.07536L8.8204 13.0527H10.4499L8.01915 16.9974L10.4884 20.942H8.83196L7.07536 18.0721H7.01373L5.25713 20.942H3.6084L6.10076 16.9974L3.63922 13.0527H5.27639Z" fill="white"/>
</g>
<defs>
<clipPath id="clip0_10179_5282">
<rect width="24" height="24" fill="white"/>
</clipPath>
</defs>
</svg>
