<svg width="24" height="24" viewBox="0 0 24 24" fill="none" xmlns="http://www.w3.org/2000/svg">
<g clip-path="url(#clip0_9894_1840)">
<path d="M12.1294 15.7417H21.2133C22.3235 15.7417 23.2212 14.8374 23.2132 13.7272L23.1663 7.2382C23.1615 6.58132 22.8984 5.95271 22.4339 5.48828L18.4449 1.50035C17.976 1.03166 17.3403 0.768356 16.6773 0.768356H12.1294C11.0248 0.768356 10.1294 1.66379 10.1294 2.76836V13.7417C10.1294 14.8463 11.0248 15.7417 12.1294 15.7417Z" fill="#E53935" stroke="#E53935" stroke-width="1.5"/>
<path d="M16.3429 5.41808C17.4164 5.41808 18.1997 5.63732 18.6928 6.0758C19.1859 6.51428 19.4325 7.12854 19.4325 7.91857C19.4325 8.27767 19.3756 8.61976 19.2618 8.94485C19.1518 9.26615 18.9697 9.55154 18.7156 9.80102C18.4614 10.0467 18.1257 10.2414 17.7085 10.385C17.295 10.5287 16.7848 10.6005 16.1779 10.6005H15.2903V13.7077H13.9247V5.41808H16.3429ZM16.2518 6.54642H15.2903V9.46649H16.0356C16.4643 9.46649 16.8284 9.41735 17.1281 9.31907C17.4278 9.21701 17.6554 9.05636 17.8109 8.83711C17.9664 8.61787 18.0442 8.3287 18.0442 7.9696C18.0442 7.48953 17.8981 7.13232 17.606 6.89796C17.3178 6.6636 16.8664 6.54642 16.2518 6.54642Z" fill="white"/>
<path d="M7.00496 3.84971L8.44853 2.4402L7.09467 0.953882" stroke="#0057FF" stroke-width="1.25" stroke-linecap="round" stroke-linejoin="round"/>
<path d="M8.06933 2.39323C4.72655 1.98279 2.57933 4.17091 2.2942 6.49306" stroke="#0057FF" stroke-width="1.25" stroke-linecap="round"/>
<path d="M2.77 23.0737H11.8539C12.9641 23.0737 13.8619 22.1694 13.8538 21.0592L13.8054 14.3652C13.8016 13.8397 13.5911 13.3368 13.2195 12.9652L8.93905 8.68594C8.56399 8.31098 8.05536 8.10034 7.52502 8.10034H2.77C1.66543 8.10034 0.770004 8.99577 0.770004 10.1003V21.0737C0.770004 22.1783 1.66543 23.0737 2.77 23.0737Z" fill="#03A63F" stroke="#03A63F" stroke-width="1.5"/>
<path d="M5.27636 13.0528L7.0137 15.9419H7.07533L8.82037 13.0528H10.4498L8.01912 16.9974L10.4884 20.9421H8.83193L7.07533 18.0722H7.0137L5.2571 20.9421H3.60837L6.10073 16.9974L3.63919 13.0528H5.27636Z" fill="white"/>
</g>
<defs>
<clipPath id="clip0_9894_1840">
<rect width="24" height="24" fill="white"/>
</clipPath>
</defs>
</svg>
