<svg width="24" height="24" viewBox="0 0 24 24" fill="none" xmlns="http://www.w3.org/2000/svg">
<g clip-path="url(#clip0_9894_1791)">
<path d="M12.1304 15.9774H21.2143C22.3245 15.9774 23.2223 15.0732 23.2143 13.963L23.1673 7.47393C23.1626 6.81706 22.8995 6.18845 22.4349 5.72401L18.4459 1.73609C17.9771 1.26739 17.3413 1.00409 16.6784 1.00409H12.1304C11.0259 1.00409 10.1304 1.89952 10.1304 3.00409V13.9774C10.1304 15.082 11.0259 15.9774 12.1304 15.9774Z" fill="#E53935" stroke="#E53935" stroke-width="1.5"/>
<path d="M16.794 5.8002C17.8674 5.8002 18.6508 6.01944 19.1439 6.45793C19.637 6.89641 19.8836 7.51067 19.8836 8.30069C19.8836 8.6598 19.8267 9.00189 19.7129 9.32697C19.6029 9.64827 19.4208 9.93367 19.1666 10.1831C18.9125 10.4289 18.5768 10.6235 18.1595 10.7672C17.7461 10.9108 17.2359 10.9826 16.6289 10.9826H15.7413V14.0898H14.3757V5.8002H16.794ZM16.7029 6.92854H15.7413V9.84862H16.4867C16.9153 9.84862 17.2795 9.79948 17.5792 9.70119C17.8788 9.59913 18.1064 9.43848 18.2619 9.21924C18.4175 9 18.4952 8.71083 18.4952 8.35172C18.4952 7.87166 18.3492 7.51445 18.0571 7.28008C17.7688 7.04572 17.3174 6.92854 16.7029 6.92854Z" fill="white"/>
<path d="M7.00607 4.08558L8.44964 2.67607L7.09578 1.18975" stroke="#0057FF" stroke-width="1.25" stroke-linecap="round" stroke-linejoin="round"/>
<path d="M8.07045 2.6291C4.72767 2.21866 2.58044 4.40678 2.29532 6.72893" stroke="#0057FF" stroke-width="1.25" stroke-linecap="round"/>
<path d="M2.92474 23.3087H12.0086C13.1189 23.3087 14.0166 22.4044 14.0086 21.2942L13.9616 14.8052C13.9569 14.1483 13.6938 13.5197 13.2292 13.0553L9.24022 9.06732C8.7714 8.59863 8.13562 8.33533 7.47269 8.33533H2.92474C1.82017 8.33533 0.924744 9.23076 0.924744 10.3353V21.3087C0.924744 22.4132 1.82017 23.3087 2.92474 23.3087Z" fill="#EF552E" stroke="#EF552E" stroke-width="1.5"/>
<g clip-path="url(#clip1_9894_1791)">
<path d="M9.33331 18.5833L11.4166 16.5L9.33331 14.4166M5.16665 14.4166L3.08331 16.5L5.16665 18.5833M8.08331 12.75L6.41665 20.25" stroke="white" stroke-linecap="round" stroke-linejoin="round"/>
</g>
</g>
<defs>
<clipPath id="clip0_9894_1791">
<rect width="24" height="24" fill="white"/>
</clipPath>
<clipPath id="clip1_9894_1791">
<rect width="10" height="10" fill="white" transform="translate(2.25 11.5)"/>
</clipPath>
</defs>
</svg>
