<svg width="24" height="24" viewBox="0 0 24 24" fill="none" xmlns="http://www.w3.org/2000/svg">
<g clip-path="url(#clip0_9894_1814)">
<path d="M7.00352 3.84292L8.4471 2.43341L7.09324 0.94709" stroke="#0057FF" stroke-width="1.25" stroke-linecap="round" stroke-linejoin="round"/>
<path d="M8.06819 2.38647C4.72457 1.97593 2.57689 4.164 2.29176 6.48615" stroke="#0057FF" stroke-width="1.25" stroke-linecap="round"/>
<path d="M12.1292 16.6785H21.2131C22.3234 16.6785 23.2211 15.7742 23.2131 14.664L23.1661 8.17498C23.1614 7.51811 22.8983 6.88949 22.4337 6.42506L18.4447 2.43713C17.9759 1.96844 17.3401 1.70514 16.6772 1.70514H12.1292C11.0247 1.70514 10.1292 2.60057 10.1292 3.70514V14.6785C10.1292 15.783 11.0247 16.6785 12.1292 16.6785Z" fill="#E53935" stroke="#E53935" stroke-width="1.5"/>
<path d="M16.3427 6.35486C17.4162 6.35486 18.1995 6.5741 18.6927 7.01258C19.1858 7.45107 19.4324 8.06532 19.4324 8.85535C19.4324 9.21445 19.3755 9.55655 19.2617 9.88163C19.1517 10.2029 18.9696 10.4883 18.7154 10.7378C18.4613 10.9835 18.1256 11.1782 17.7083 11.3218C17.2949 11.4655 16.7847 11.5373 16.1777 11.5373H15.2901V14.6445H13.9245V6.35486H16.3427ZM16.2517 7.4832H15.2901V10.4033H16.0355C16.4641 10.4033 16.8283 10.3541 17.128 10.2559C17.4276 10.1538 17.6552 9.99314 17.8107 9.7739C17.9663 9.55466 18.044 9.26548 18.044 8.90638C18.044 8.42632 17.898 8.0691 17.6059 7.83474C17.3176 7.60038 16.8662 7.4832 16.2517 7.4832Z" fill="white"/>
<path d="M2.76987 23.2289H11.8538C12.964 23.2289 13.8617 22.3246 13.8537 21.2144L13.8068 14.7254C13.802 14.0685 13.5389 13.4399 13.0743 12.9755L9.08535 8.98755C8.61653 8.51885 7.98074 8.25555 7.31782 8.25555H2.76987C1.6653 8.25555 0.769867 9.15099 0.769867 10.2556V21.2289C0.769867 22.3335 1.6653 23.2289 2.76987 23.2289Z" fill="#FF9900" stroke="#FF9900" stroke-width="1.5"/>
<path d="M4.36841 15.0064L1.76315 18.7696C1.51647 19.1259 1.39313 19.3041 1.40016 19.4522C1.40627 19.5813 1.46902 19.701 1.57163 19.7795C1.68946 19.8696 1.90615 19.8696 2.33952 19.8696H8.88797L5.52114 15.0064C5.32752 14.7267 5.2307 14.5869 5.10977 14.5377C5.00398 14.4947 4.88558 14.4947 4.77979 14.5377C4.65886 14.5869 4.56204 14.7267 4.36841 15.0064Z" fill="white" stroke="white" stroke-width="0.948235" stroke-linecap="round" stroke-linejoin="round"/>
<path d="M11.0379 19.8742H7.21539L8.80967 17.295L9.13573 16.806C9.33075 16.5134 9.42826 16.3672 9.55117 16.3162C9.65862 16.2716 9.77939 16.2716 9.88684 16.3162C10.0097 16.3672 10.1073 16.5134 10.3023 16.806L11.6212 18.7844L11.6212 18.7844C11.8572 19.1384 11.9753 19.3154 11.9665 19.4622C11.9589 19.5901 11.8956 19.7082 11.7935 19.7855C11.6762 19.8742 11.4634 19.8742 11.0379 19.8742H11.0379Z" fill="white" stroke="white" stroke-width="0.948235" stroke-linecap="round" stroke-linejoin="round"/>
<path d="M8.14934 14.2374C8.87526 14.2374 9.46374 13.6489 9.46374 12.923C9.46374 12.1971 8.87526 11.6086 8.14934 11.6086C7.42342 11.6086 6.83495 12.1971 6.83495 12.923C6.83495 13.6489 7.42342 14.2374 8.14934 14.2374Z" fill="white"/>
</g>
<defs>
<clipPath id="clip0_9894_1814">
<rect width="24" height="24" fill="white"/>
</clipPath>
</defs>
</svg>
