<svg width="24" height="24" viewBox="0 0 24 24" fill="none" xmlns="http://www.w3.org/2000/svg">
<g clip-path="url(#clip0_9894_1884)">
<path d="M7.00353 3.84292L8.4471 2.43341L7.09324 0.94709" stroke="#0057FF" stroke-width="1.25" stroke-linecap="round" stroke-linejoin="round"/>
<path d="M8.0682 2.38647C4.72458 1.97593 2.57689 4.164 2.29177 6.48615" stroke="#0057FF" stroke-width="1.25" stroke-linecap="round"/>
<path d="M12.1292 16.6785H21.2131C22.3234 16.6785 23.2211 15.7742 23.2131 14.664L23.1661 8.175C23.1614 7.51812 22.8983 6.88951 22.4337 6.42508L18.4447 2.43715C17.9759 1.96845 17.3401 1.70515 16.6772 1.70515H12.1292C11.0247 1.70515 10.1292 2.60059 10.1292 3.70516V14.6785C10.1292 15.7831 11.0247 16.6785 12.1292 16.6785Z" fill="#FF9900" stroke="#FF9900" stroke-width="1.5"/>
<path d="M13.7278 8.45603L11.1225 12.2192C10.8758 12.5755 10.7525 12.7537 10.7595 12.9018C10.7656 13.0309 10.8284 13.1506 10.931 13.2291C11.0488 13.3192 11.2655 13.3192 11.6989 13.3192H18.2473L14.8805 8.45603C14.6869 8.17635 14.5901 8.03651 14.4691 7.98735C14.3634 7.94434 14.245 7.94434 14.1392 7.98735C14.0182 8.03651 13.9214 8.17635 13.7278 8.45603Z" fill="white" stroke="white" stroke-width="0.948235" stroke-linecap="round" stroke-linejoin="round"/>
<path d="M20.3973 13.3238H16.5748L18.1691 10.7446L18.4951 10.2556C18.6901 9.96302 18.7876 9.81675 18.9105 9.76578C19.018 9.72122 19.1388 9.72122 19.2462 9.76578C19.3691 9.81675 19.4666 9.96302 19.6617 10.2556L20.9806 12.234L20.9806 12.234C21.2166 12.588 21.3346 12.765 21.3259 12.9118C21.3182 13.0397 21.255 13.1578 21.1528 13.2351C21.0356 13.3238 20.8228 13.3238 20.3973 13.3238H20.3973Z" fill="white" stroke="white" stroke-width="0.948235" stroke-linecap="round" stroke-linejoin="round"/>
<path d="M17.5087 7.68699C18.2346 7.68699 18.8231 7.09851 18.8231 6.37259C18.8231 5.64667 18.2346 5.0582 17.5087 5.0582C16.7828 5.0582 16.1943 5.64667 16.1943 6.37259C16.1943 7.09851 16.7828 7.68699 17.5087 7.68699Z" fill="white"/>
<path d="M2.76987 23.2289H11.8538C12.964 23.2289 13.8617 22.3246 13.8537 21.2144L13.8068 14.7254C13.802 14.0685 13.5389 13.4399 13.0744 12.9755L9.08536 8.98753C8.61653 8.51884 7.98075 8.25554 7.31783 8.25554H2.76987C1.6653 8.25554 0.769875 9.15097 0.769875 10.2555V21.2289C0.769875 22.3334 1.6653 23.2289 2.76987 23.2289Z" fill="#E53935" stroke="#E53935" stroke-width="1.5"/>
<path d="M6.98337 12.9053C8.05687 12.9053 8.84017 13.1245 9.3333 13.563C9.82642 14.0015 10.073 14.6157 10.073 15.4057C10.073 15.7649 10.0161 16.1069 9.90229 16.432C9.79228 16.7533 9.61021 17.0387 9.35606 17.2882C9.10191 17.5339 8.76621 17.7286 8.34895 17.8722C7.93548 18.0159 7.42529 18.0877 6.81837 18.0877H5.93074V21.1949H4.56517V12.9053H6.98337ZM6.89233 14.0336H5.93074V16.9537H6.67612C7.10476 16.9537 7.46891 16.9045 7.76858 16.8063C8.06825 16.7042 8.29584 16.5435 8.45136 16.3243C8.60689 16.1051 8.68465 15.8159 8.68465 15.4568C8.68465 14.9767 8.53861 14.6195 8.24653 14.3851C7.95824 14.1508 7.50684 14.0336 6.89233 14.0336Z" fill="white"/>
</g>
<defs>
<clipPath id="clip0_9894_1884">
<rect width="24" height="24" fill="white"/>
</clipPath>
</defs>
</svg>
