<svg width="24" height="24" viewBox="0 0 24 24" fill="none" xmlns="http://www.w3.org/2000/svg">
<g clip-path="url(#clip0_9894_1862)">
<path d="M12.1294 15.7417H21.2133C22.3235 15.7417 23.2212 14.8374 23.2132 13.7272L23.1648 7.03319C23.161 6.50769 22.9505 6.0048 22.5789 5.63326L18.2984 1.35397C17.9234 0.979012 17.4147 0.768372 16.8844 0.768372H12.1294C11.0248 0.768372 10.1294 1.6638 10.1294 2.76837V13.7417C10.1294 14.8463 11.0248 15.7417 12.1294 15.7417Z" fill="#FF5F5B" stroke="#FF5F5B" stroke-width="1.5"/>
<path d="M16.3429 5.41809C17.4164 5.41809 18.1997 5.63733 18.6928 6.07582C19.1859 6.5143 19.4325 7.12856 19.4325 7.91858C19.4325 8.27768 19.3756 8.61978 19.2618 8.94486C19.1518 9.26616 18.9697 9.55156 18.7156 9.80104C18.4614 10.0467 18.1257 10.2414 17.7085 10.3851C17.295 10.5287 16.7848 10.6005 16.1779 10.6005H15.2902V13.7077H13.9247V5.41809H16.3429ZM16.2518 6.54643H15.2902V9.4665H16.0356C16.4643 9.4665 16.8284 9.41736 17.1281 9.31908C17.4278 9.21702 17.6553 9.05637 17.8109 8.83713C17.9664 8.61789 18.0442 8.32872 18.0442 7.96961C18.0442 7.48955 17.8981 7.13234 17.606 6.89797C17.3177 6.66361 16.8663 6.54643 16.2518 6.54643Z" fill="white"/>
<path d="M7.00496 3.84972L8.44853 2.44022L7.09467 0.953897" stroke="#0057FF" stroke-width="1.25" stroke-linecap="round" stroke-linejoin="round"/>
<path d="M8.06932 2.39323C4.72654 1.98279 2.57931 4.17091 2.29419 6.49306" stroke="#0057FF" stroke-width="1.25" stroke-linecap="round"/>
<path d="M2.77 23.0728H11.8539C12.9641 23.0728 13.8619 22.1685 13.8538 21.0583L13.8054 14.3643C13.8016 13.8388 13.5911 13.3359 13.2195 12.9644L8.93905 8.68507C8.56399 8.31011 8.05536 8.09947 7.52502 8.09947H2.77C1.66543 8.09947 0.770004 8.9949 0.770004 10.0995V21.0728C0.770004 22.1774 1.66543 23.0728 2.77 23.0728Z" fill="#E53935" stroke="#E53935" stroke-width="1.5"/>
<path d="M7.03977 12.3219C8.11326 12.3219 8.89657 12.5411 9.38969 12.9796C9.88282 13.4181 10.1294 14.0323 10.1294 14.8224C10.1294 15.1815 10.0725 15.5236 9.95868 15.8487C9.84868 16.17 9.6666 16.4553 9.41245 16.7048C9.15831 16.9505 8.8226 17.1452 8.40534 17.2888C7.99188 17.4325 7.48168 17.5043 6.87476 17.5043H5.98714V20.6115H4.62157V12.3219H7.03977ZM6.94873 13.4502H5.98714V16.3703H6.73252C7.16115 16.3703 7.52531 16.3212 7.82497 16.2229C8.12464 16.1208 8.35224 15.9602 8.50776 15.7409C8.66328 15.5217 8.74105 15.2325 8.74105 14.8734C8.74105 14.3933 8.59501 14.0361 8.30293 13.8018C8.01464 13.5674 7.56324 13.4502 6.94873 13.4502Z" fill="white"/>
</g>
<defs>
<clipPath id="clip0_9894_1862">
<rect width="24" height="24" fill="white"/>
</clipPath>
</defs>
</svg>
