<svg width="24" height="24" viewBox="0 0 24 24" fill="none" xmlns="http://www.w3.org/2000/svg">
<g clip-path="url(#clip0_9894_1851)">
<path d="M12.1304 15.9774H21.2143C22.3245 15.9774 23.2223 15.0732 23.2142 13.963L23.1673 7.47393C23.1625 6.81706 22.8995 6.18845 22.4349 5.72401L18.4459 1.73609C17.9771 1.26739 17.3413 1.00409 16.6784 1.00409H12.1304C11.0258 1.00409 10.1304 1.89952 10.1304 3.00409V13.9774C10.1304 15.082 11.0258 15.9774 12.1304 15.9774Z" fill="#E53935" stroke="#E53935" stroke-width="1.5"/>
<path d="M16.7939 5.8002C17.8674 5.8002 18.6507 6.01944 19.1439 6.45793C19.637 6.89641 19.8835 7.51067 19.8835 8.30069C19.8835 8.6598 19.8266 9.00189 19.7128 9.32697C19.6028 9.64827 19.4208 9.93367 19.1666 10.1831C18.9125 10.4289 18.5768 10.6235 18.1595 10.7672C17.746 10.9108 17.2358 10.9826 16.6289 10.9826H15.7413V14.0898H14.3757V5.8002H16.7939ZM16.7029 6.92854H15.7413V9.84862H16.4867C16.9153 9.84862 17.2795 9.79948 17.5791 9.70119C17.8788 9.59913 18.1064 9.43848 18.2619 9.21924C18.4175 9 18.4952 8.71083 18.4952 8.35172C18.4952 7.87166 18.3492 7.51445 18.0571 7.28008C17.7688 7.04572 17.3174 6.92854 16.7029 6.92854Z" fill="white"/>
<path d="M7.00606 4.08558L8.44963 2.67607L7.09577 1.18975" stroke="#0057FF" stroke-width="1.25" stroke-linecap="round" stroke-linejoin="round"/>
<path d="M8.07042 2.6291C4.72763 2.21866 2.58041 4.40678 2.29529 6.72893" stroke="#0057FF" stroke-width="1.25" stroke-linecap="round"/>
<path d="M2.92471 23.3087H12.0086C13.1188 23.3087 14.0166 22.4044 14.0085 21.2942L13.9616 14.8052C13.9568 14.1483 13.6937 13.5197 13.2292 13.0553L9.24019 9.06732C8.77137 8.59863 8.13559 8.33533 7.47266 8.33533H2.92471C1.82014 8.33533 0.924713 9.23076 0.924713 10.3353V21.3087C0.924713 22.4132 1.82014 23.3087 2.92471 23.3087Z" fill="#5E3DCA" stroke="#5E3DCA" stroke-width="1.5"/>
<path d="M3.96678 14.3945V13H10.5371V14.3945H8.08788V21H6.416V14.3945H3.96678Z" fill="white"/>
</g>
<defs>
<clipPath id="clip0_9894_1851">
<rect width="24" height="24" fill="white"/>
</clipPath>
</defs>
</svg>
