<svg width="24" height="24" viewBox="0 0 24 24" fill="none" xmlns="http://www.w3.org/2000/svg">
<g clip-path="url(#clip0_9894_1829)">
<path d="M12.1304 15.9774H21.2143C22.3245 15.9774 23.2223 15.0732 23.2142 13.963L23.1673 7.47393C23.1625 6.81706 22.8995 6.18845 22.4349 5.72401L18.4459 1.73609C17.9771 1.26739 17.3413 1.00409 16.6784 1.00409H12.1304C11.0258 1.00409 10.1304 1.89952 10.1304 3.00409V13.9774C10.1304 15.082 11.0258 15.9774 12.1304 15.9774Z" fill="#E53935" stroke="#E53935" stroke-width="1.5"/>
<path d="M16.7939 5.8002C17.8674 5.8002 18.6507 6.01944 19.1439 6.45793C19.637 6.89641 19.8835 7.51067 19.8835 8.30069C19.8835 8.6598 19.8266 9.00189 19.7128 9.32697C19.6028 9.64827 19.4208 9.93367 19.1666 10.1831C18.9125 10.4289 18.5768 10.6235 18.1595 10.7672C17.746 10.9108 17.2358 10.9826 16.6289 10.9826H15.7413V14.0898H14.3757V5.8002H16.7939ZM16.7029 6.92854H15.7413V9.84862H16.4867C16.9153 9.84862 17.2795 9.79948 17.5791 9.70119C17.8788 9.59913 18.1064 9.43848 18.2619 9.21924C18.4175 9 18.4952 8.71083 18.4952 8.35172C18.4952 7.87166 18.3492 7.51445 18.0571 7.28008C17.7688 7.04572 17.3174 6.92854 16.7029 6.92854Z" fill="white"/>
<path d="M7.00606 4.08558L8.44963 2.67607L7.09577 1.18975" stroke="#0057FF" stroke-width="1.25" stroke-linecap="round" stroke-linejoin="round"/>
<path d="M8.07042 2.6291C4.72763 2.21866 2.58041 4.40678 2.29529 6.72893" stroke="#0057FF" stroke-width="1.25" stroke-linecap="round"/>
<path d="M2.92471 23.3087H12.0086C13.1188 23.3087 14.0166 22.4044 14.0085 21.2942L13.9616 14.8052C13.9568 14.1483 13.6937 13.5197 13.2292 13.0553L9.24019 9.06732C8.77137 8.59863 8.13559 8.33533 7.47266 8.33533H2.92471C1.82014 8.33533 0.924713 9.23076 0.924713 10.3353V21.3087C0.924713 22.4132 1.82014 23.3087 2.92471 23.3087Z" fill="#3782F5" stroke="#3782F5" stroke-width="1.5"/>
<path d="M11.8428 14.0898L10.0916 20.7704H8.8905L7.77192 16.7675C7.74441 16.67 7.71385 16.5543 7.68023 16.4202C7.64662 16.2862 7.613 16.1491 7.57938 16.009C7.54882 15.8688 7.52131 15.7409 7.49686 15.6251C7.47547 15.5063 7.46019 15.4149 7.45102 15.351C7.4449 15.4149 7.43115 15.5048 7.40976 15.6206C7.38836 15.7363 7.36239 15.8643 7.33182 16.0044C7.30432 16.1415 7.27376 16.2786 7.24014 16.4157C7.20652 16.5497 7.17596 16.6685 7.14845 16.7721L6.04821 20.7704H4.85169L3.10506 14.0898H4.20988L5.17718 18.0058C5.20774 18.1307 5.23831 18.2663 5.26887 18.4125C5.30249 18.5557 5.33305 18.7004 5.36056 18.8466C5.39112 18.9929 5.41862 19.136 5.44307 19.2762C5.46752 19.4132 5.48739 19.5381 5.50267 19.6509C5.51795 19.5351 5.53782 19.4072 5.56227 19.267C5.58672 19.1238 5.61269 18.9791 5.6402 18.8329C5.67076 18.6837 5.70132 18.5405 5.73189 18.4034C5.76551 18.2663 5.79912 18.1429 5.83274 18.0333L6.92382 14.0898H7.99655L9.11055 18.047C9.14417 18.1597 9.17626 18.2861 9.20682 18.4262C9.24044 18.5664 9.27253 18.7095 9.30309 18.8558C9.33365 19.002 9.36116 19.1436 9.38561 19.2807C9.41006 19.4178 9.42993 19.5412 9.44521 19.6509C9.4666 19.5016 9.49411 19.331 9.52773 19.1391C9.56134 18.9472 9.59955 18.7522 9.64233 18.5542C9.68512 18.3562 9.72791 18.1734 9.7707 18.0058L10.7334 14.0898H11.8428Z" fill="white"/>
</g>
<defs>
<clipPath id="clip0_9894_1829">
<rect width="24" height="24" fill="white"/>
</clipPath>
</defs>
</svg>
