<svg width="24" height="24" viewBox="0 0 24 24" fill="none" xmlns="http://www.w3.org/2000/svg">
<path d="M23.094 7.95582C22.6076 11.3294 21.0554 14.4026 18.7135 16.6287C16.3715 18.8549 13.3918 20.0897 10.3044 20.1133C9.67899 20.1399 9.05279 20.0978 8.43492 19.9878C7.14273 19.7449 5.96488 19.0192 5.09782 17.9317C4.23075 16.8443 3.72687 15.4608 3.67023 14.0121C3.68272 12.3962 4.26896 10.8505 5.30245 9.70867C6.33589 8.56688 7.73373 7.9205 9.19421 7.90909C10.6547 7.89767 12.0606 8.52214 13.1086 9.64766C14.1565 10.7732 14.7625 12.3095 14.7956 13.925C14.819 14.9454 14.4195 15.8404 13.5984 15.8662C12.7212 15.8662 12.31 15.1737 12.31 14.2404V11.6469C12.3103 11.2275 12.1607 10.825 11.8939 10.5272C11.627 10.2293 11.2645 10.0603 10.8855 10.0569H8.92053C8.34898 10.0526 7.78555 10.2068 7.28175 10.5054C6.77795 10.8041 6.34985 11.2377 6.03658 11.7666C5.72327 12.2955 5.53474 12.9028 5.48822 13.533C5.44169 14.1633 5.53866 14.7964 5.77026 15.3745C6.00186 15.9526 6.36071 16.4573 6.81402 16.8424C7.26733 17.2276 7.80065 17.481 8.36525 17.5794C8.92985 17.6776 9.50771 17.6178 10.046 17.4054C10.5843 17.1929 11.066 16.8346 11.4469 16.3632L11.5156 16.2498L11.5843 16.3757C11.8207 16.7309 12.1327 17.016 12.4926 17.2056C12.8526 17.3953 13.2493 17.4836 13.6475 17.4627C14.3574 17.4056 15.0189 17.0438 15.4909 16.4545C15.963 15.8652 16.208 15.0951 16.1739 14.3086C16.1808 13.6337 16.1124 12.9605 15.9703 12.3041C15.6059 10.4498 14.634 8.81043 13.242 7.70208C11.85 6.59373 10.1364 6.09476 8.43157 6.30136C6.72674 6.50796 5.15141 7.4055 4.00928 8.82095C2.86707 10.2365 2.2389 12.0697 2.24584 13.9673C2.26776 15.9794 2.99373 17.9037 4.27122 19.336C5.5486 20.7683 7.27809 21.597 9.09621 21.6478C9.09621 21.6478 9.61079 21.6996 10.1909 21.6849C13.0109 21.6651 15.7672 20.7553 18.1359 19.0622C18.1696 19.0363 18.2033 19.0881 18.1809 19.1259C17.0277 20.5003 15.6175 21.5801 14.0486 22.2899C12.4796 22.9998 10.7897 23.3228 9.09643 23.2363C7.98946 23.2585 6.8899 23.0324 5.86407 22.5716C4.83825 22.1108 3.90743 21.4249 3.12778 20.5552C2.34806 19.6855 1.73565 18.6501 1.32747 17.5114C0.91929 16.3727 0.723809 15.1543 0.752814 13.9298C0.753347 12.4699 1.06164 11.0302 1.65319 9.72518C2.24474 8.42018 3.10324 7.28579 4.16049 6.41217C5.58129 5.25457 7.29831 4.62744 9.06281 4.62163H11.7C12.7302 4.62078 13.7489 4.38259 14.6913 3.92222C15.6337 3.46185 16.4791 2.7894 17.1737 1.94769C17.1884 1.92969 17.2079 1.91737 17.2294 1.91254C17.2508 1.9074 17.2732 1.90986 17.2933 1.91957C17.3134 1.92927 17.3302 1.94573 17.3414 1.96662C17.3527 1.98758 17.3578 2.01188 17.3559 2.03627C17.2441 3.34769 16.8495 4.61028 16.2053 5.71799C16.1957 5.73723 16.1914 5.75912 16.1929 5.78101C16.1944 5.80289 16.2017 5.82382 16.2137 5.84123C16.2258 5.85862 16.2421 5.87178 16.2607 5.87912C16.2793 5.88646 16.2995 5.88766 16.3187 5.88259C17.5361 5.57833 18.6719 4.96217 19.6348 4.08368C20.5977 3.2052 21.3607 2.08891 21.8625 0.824662C21.8753 0.80207 21.8928 0.78331 21.9137 0.770016C21.9348 0.756894 21.9585 0.75 21.9826 0.75C22.0068 0.75 22.0305 0.756894 22.0515 0.770016C22.0725 0.783229 22.0901 0.801988 22.1027 0.824662C23.1363 3.01523 23.4849 5.52288 23.094 7.95582ZM9.08943 11.6145C8.78607 11.6145 8.48648 11.6889 8.21224 11.8323C7.938 11.9758 7.69593 12.1847 7.50348 12.4442C7.31102 12.7036 7.17298 13.007 7.09929 13.3326C7.0256 13.6581 7.01809 13.9977 7.07732 14.3269C7.15648 14.7671 7.35184 15.1716 7.63872 15.489C7.9256 15.8064 8.29111 16.0226 8.68904 16.1103C8.98655 16.1757 9.29349 16.1674 9.58773 16.0858C9.88197 16.0042 10.1562 15.8514 10.3907 15.6385C10.6251 15.4256 10.814 15.1578 10.9436 14.8544C11.0732 14.551 11.1405 14.2195 11.1404 13.8839V11.7652C11.1386 11.7247 11.1232 11.6863 11.0972 11.6576C11.0713 11.6289 11.0367 11.6119 11 11.6099L9.08943 11.6145Z" fill="#592C8C"/>
</svg>
