<svg width="54" height="40" viewBox="0 0 54 40" fill="none" xmlns="http://www.w3.org/2000/svg">
<rect width="54" height="40" fill="white"/>
<path d="M15.0871 16.6217C15.0871 17.2802 15.1582 17.8142 15.2828 18.2057C15.4252 18.5973 15.6032 19.0244 15.8523 19.4871C15.9413 19.6295 15.9769 19.7719 15.9769 19.8965C15.9769 20.0744 15.8701 20.2524 15.6388 20.4304L14.5176 21.1779C14.3574 21.2847 14.1972 21.3381 14.0548 21.3381C13.8769 21.3381 13.6989 21.2491 13.5209 21.0889C13.2718 20.8219 13.0582 20.5372 12.8803 20.2524C12.7023 19.9499 12.5243 19.6117 12.3286 19.2024C10.9404 20.8397 9.19634 21.6584 7.09633 21.6584C5.6014 21.6584 4.40902 21.2313 3.53698 20.377C2.66494 19.5227 2.22002 18.3837 2.22002 16.9599C2.22002 15.4471 2.75393 14.2191 3.83953 13.2936C4.92513 12.3681 6.36666 11.9054 8.19972 11.9054C8.80481 11.9054 9.4277 11.9588 10.0862 12.0478C10.7447 12.1368 11.4209 12.2792 12.1328 12.4393V11.1401C12.1328 9.78752 11.848 8.84425 11.2964 8.29253C10.7269 7.74081 9.76583 7.47385 8.39549 7.47385C7.7726 7.47385 7.13192 7.54504 6.47344 7.70521C5.81496 7.86539 5.17428 8.06116 4.55139 8.31033C4.26665 8.43491 4.05309 8.5061 3.92851 8.54169C3.80393 8.57729 3.71495 8.59509 3.64376 8.59509C3.39461 8.59509 3.27003 8.41711 3.27003 8.04336V7.17129C3.27003 6.88653 3.30562 6.67296 3.39461 6.54838C3.48359 6.4238 3.64376 6.29921 3.89292 6.17463C4.5158 5.85428 5.26326 5.58732 6.1353 5.37375C7.00734 5.14238 7.93277 5.03559 8.91159 5.03559C11.0294 5.03559 12.5777 5.51613 13.5743 6.47719C14.5532 7.43825 15.0515 8.89764 15.0515 10.8554V16.6217H15.0871ZM7.86158 19.327C8.44888 19.327 9.05396 19.2202 9.69465 19.0066C10.3353 18.793 10.9048 18.4015 11.3853 17.8676C11.6701 17.5294 11.8836 17.1557 11.9904 16.7285C12.0972 16.3014 12.1684 15.7853 12.1684 15.1801V14.4327C11.6523 14.3081 11.1006 14.2013 10.5311 14.1301C9.9616 14.0589 9.4099 14.0233 8.8582 14.0233C7.66582 14.0233 6.79378 14.2547 6.20649 14.7352C5.6192 15.2157 5.33445 15.892 5.33445 16.7819C5.33445 17.6184 5.54801 18.2413 5.99293 18.6684C6.42005 19.1134 7.04294 19.327 7.86158 19.327ZM22.1524 21.2491C21.832 21.2491 21.6185 21.1957 21.4761 21.0711C21.3337 20.9643 21.2091 20.7152 21.1023 20.377L16.9201 6.61957C16.8133 6.26362 16.7599 6.03225 16.7599 5.90767C16.7599 5.62291 16.9023 5.46273 17.1871 5.46273H18.9311C19.2693 5.46273 19.5006 5.51613 19.6252 5.64071C19.7676 5.74749 19.8744 5.99666 19.9812 6.33481L22.971 18.1167L25.7473 6.33481C25.8363 5.97886 25.9431 5.74749 26.0854 5.64071C26.2278 5.53392 26.477 5.46273 26.7973 5.46273H28.221C28.5592 5.46273 28.7905 5.51613 28.9329 5.64071C29.0753 5.74749 29.1999 5.99666 29.271 6.33481L32.0829 18.2591L35.1618 6.33481C35.2685 5.97886 35.3931 5.74749 35.5177 5.64071C35.6601 5.53392 35.8914 5.46273 36.2118 5.46273H37.8669C38.1516 5.46273 38.3118 5.60511 38.3118 5.90767C38.3118 5.99666 38.294 6.08564 38.2762 6.19243C38.2584 6.29921 38.2228 6.44159 38.1516 6.63737L33.8626 20.3948C33.7558 20.7507 33.6312 20.9821 33.4889 21.0889C33.3465 21.1957 33.1151 21.2669 32.8126 21.2669H31.2821C30.9439 21.2669 30.7126 21.2135 30.5702 21.0889C30.4278 20.9643 30.3032 20.7329 30.2321 20.377L27.4736 8.89764L24.7329 20.3592C24.6439 20.7152 24.5371 20.9465 24.3947 21.0711C24.2524 21.1957 24.0032 21.2491 23.6829 21.2491H22.1524ZM45.0211 21.7296C44.0957 21.7296 43.1703 21.6228 42.2804 21.4093C41.3906 21.1957 40.6965 20.9643 40.2338 20.6974C39.9491 20.5372 39.7533 20.3592 39.6821 20.199C39.6109 20.0388 39.5753 19.8609 39.5753 19.7007V18.793C39.5753 18.4193 39.7177 18.2413 39.9847 18.2413C40.0914 18.2413 40.1982 18.2591 40.305 18.2947C40.4118 18.3303 40.572 18.4015 40.7499 18.4727C41.355 18.7396 42.0135 18.9532 42.7076 19.0956C43.4194 19.238 44.1135 19.3092 44.8254 19.3092C45.9466 19.3092 46.8186 19.1134 47.4237 18.7218C48.0288 18.3303 48.3491 17.7608 48.3491 17.0311C48.3491 16.5327 48.189 16.1234 47.8686 15.7853C47.5483 15.4471 46.9432 15.1445 46.0711 14.8598L43.4906 14.0589C42.1915 13.6496 41.2304 13.0444 40.6431 12.2436C40.0559 11.4605 39.7533 10.5884 39.7533 9.66293C39.7533 8.91544 39.9135 8.25693 40.2338 7.68742C40.5542 7.1179 40.9813 6.61957 41.5152 6.22802C42.0491 5.81868 42.6542 5.51613 43.366 5.30256C44.0779 5.08899 44.8254 5 45.6084 5C46 5 46.4093 5.0178 46.8008 5.07119C47.2101 5.12458 47.5839 5.19577 47.9576 5.26696C48.3135 5.35595 48.6517 5.44494 48.972 5.55172C49.2923 5.65851 49.5415 5.76529 49.7195 5.87208C49.9686 6.01445 50.1466 6.15683 50.2534 6.31701C50.3602 6.45939 50.4135 6.65516 50.4135 6.90433V7.74081C50.4135 8.11455 50.2712 8.31033 50.0042 8.31033C49.8618 8.31033 49.6305 8.23914 49.3279 8.09676C48.3135 7.63402 47.1745 7.40266 45.911 7.40266C44.8966 7.40266 44.0957 7.56283 43.544 7.90098C42.9923 8.23914 42.7076 8.75526 42.7076 9.48496C42.7076 9.98329 42.8855 10.4104 43.2415 10.7486C43.5974 11.0867 44.2559 11.4249 45.1991 11.7274L47.7262 12.5283C49.0076 12.9377 49.933 13.5072 50.4847 14.2369C51.0364 14.9666 51.3034 15.8031 51.3034 16.7285C51.3034 17.4938 51.1432 18.1879 50.8407 18.793C50.5203 19.3981 50.0932 19.9321 49.5415 20.3592C48.9898 20.8041 48.3313 21.1245 47.5661 21.3559C46.7652 21.605 45.9288 21.7296 45.0211 21.7296Z" fill="#252F3E"/>
<path fill-rule="evenodd" clip-rule="evenodd" d="M48.3772 30.379C42.5221 34.7037 34.0152 36.9996 26.7008 36.9996C16.4499 36.9996 7.21337 33.2087 0.237055 26.9084C-0.314643 26.4101 0.183665 25.7338 0.842144 26.1254C8.38795 30.5035 17.6956 33.1554 27.3237 33.1554C33.8195 33.1554 40.956 31.8027 47.523 29.0263C48.5018 28.5814 49.3382 29.6671 48.3772 30.379Z" fill="#FF9900"/>
<path fill-rule="evenodd" clip-rule="evenodd" d="M50.8151 27.603C50.0676 26.642 45.8676 27.1403 43.9634 27.3717C43.3939 27.4429 43.3049 26.9445 43.821 26.5708C47.1668 24.2215 52.666 24.8978 53.3066 25.6809C53.9473 26.4818 53.1287 31.9812 49.9964 34.6152C49.5159 35.0246 49.0532 34.811 49.2668 34.2771C49.9787 32.5151 51.5626 28.5463 50.8151 27.603Z" fill="#FF9900"/>
</svg>
