<svg width="40" height="40" viewBox="0 0 40 40" fill="none" xmlns="http://www.w3.org/2000/svg">
<rect width="40" height="40" fill="white"/>
<g clip-path="url(#clip0_5708_28)">
<path d="M39.3497 16.9717C38.3691 16.3116 35.7922 16.0297 33.9188 16.5343C33.8177 14.6683 32.8556 13.0958 31.0954 11.7238L30.4438 11.2864L30.0095 11.9422C29.1559 13.2381 28.7962 14.9645 28.9237 16.5338C29.0242 17.5006 29.3605 18.5876 30.0095 19.3762C27.5712 20.7905 25.3238 20.4695 15.3707 20.4695H0.00344998C-0.0415081 22.7168 0.319743 27.0402 3.06906 30.5596C3.37266 30.9484 3.70588 31.3245 4.06713 31.6868C6.30234 33.9252 9.67949 35.5664 14.7296 35.5712C22.4338 35.578 29.0347 31.4139 33.0498 21.3448C34.371 21.3665 37.8587 21.5818 39.5655 18.2834C39.6073 18.2279 39.9997 17.4086 39.9997 17.4086L39.3492 16.9712L39.3497 16.9717ZM10.0323 14.9164H5.71101V19.2376H10.0323V14.9164ZM15.615 14.9164H11.2937V19.2376H15.615V14.9164ZM21.1977 14.9164H16.8765V19.2376H21.1977V14.9164ZM26.7805 14.9164H22.4592V19.2376H26.7805V14.9164ZM4.44954 14.9164H0.128275V19.2376H4.44954V14.9164ZM10.0323 9.45844H5.71101V13.7797H10.0323V9.45844ZM15.615 9.45844H11.2937V13.7797H15.615V9.45844ZM21.1977 9.45844H16.8765V13.7797H21.1977V9.45844ZM21.1977 4H16.8765V8.32126H21.1977V4Z" fill="#1D63ED"/>
</g>
<defs>
<clipPath id="clip0_5708_28">
<rect width="40" height="31.5712" fill="white" transform="translate(0 4)"/>
</clipPath>
</defs>
</svg>
