<svg width="40" height="40" viewBox="0 0 40 40" fill="none" xmlns="http://www.w3.org/2000/svg">
<rect width="40" height="40" fill="white"/>
<g clip-path="url(#clip0_5708_10)">
<path d="M25.38 12.8657H26.6006L30.078 9.38828L30.249 7.91282C23.7788 2.20213 13.9016 2.81746 8.19095 9.28768C6.60315 11.0851 5.45129 13.2228 4.82422 15.5366C5.21153 15.3773 5.64075 15.3521 6.04483 15.4628L12.9979 14.316C12.9979 14.316 13.3517 13.7308 13.5345 13.7677C16.6279 10.3708 21.8339 9.97511 25.4052 12.8657H25.38Z" fill="#EA4335"/>
<path d="M35.0327 15.5368C34.2329 12.5943 32.5931 9.94853 30.3112 7.9248L25.4321 12.8039C27.4927 14.4872 28.6664 17.024 28.6161 19.6849V20.5517C31.0154 20.5517 32.9586 22.4966 32.9586 24.8942C32.9586 27.2935 31.0137 29.2368 28.6161 29.2368H19.9293L19.0625 30.1154V35.3247L19.9293 36.1916H28.6161C33.5958 36.2301 38.0138 33.0026 39.4926 28.2476C40.968 23.4909 39.1572 18.3268 35.0327 15.5368Z" fill="#4285F4"/>
<path d="M11.2308 36.1426H19.9176V29.1895H11.2308C10.6121 29.1895 10.0001 29.057 9.43677 28.7988L8.21617 29.1761L4.71531 32.6535L4.41016 33.8741C6.37352 35.3562 8.76946 36.1526 11.2308 36.1426Z" fill="#34A853"/>
<path d="M11.2294 13.585C6.40403 13.6135 2.13023 16.7035 0.591057 21.2758C-0.948114 25.848 0.586027 30.8948 4.41048 33.8356L9.44884 28.7973C7.26247 27.8097 6.29169 25.2377 7.27924 23.0514C8.26679 20.865 10.8388 19.8942 13.0251 20.8818C13.9875 21.3177 14.7588 22.089 15.1947 23.0514L20.2331 18.013C18.0886 15.2113 14.7571 13.5732 11.2294 13.585Z" fill="#FBBC05"/>
</g>
<defs>
<clipPath id="clip0_5708_10">
<rect width="40" height="32.1901" fill="white" transform="translate(0 4)"/>
</clipPath>
</defs>
</svg>
