<svg width="40" height="40" viewBox="0 0 40 40" fill="none" xmlns="http://www.w3.org/2000/svg">
<g clip-path="url(#clip0_5707_8)">
<rect width="40" height="40" fill="white"/>
<g clip-path="url(#clip1_5707_8)">
<path d="M0 0H40V40H0V0Z" fill="#F7DF1E"/>
<path d="M10.5175 33.4269L13.5785 31.5744C14.1691 32.6214 14.7063 33.5074 15.9949 33.5074C17.23 33.5074 18.0088 33.0242 18.0088 31.1448V18.3639H21.7677V31.198C21.7677 35.0913 19.4856 36.8634 16.156 36.8634C13.149 36.8634 11.4034 35.306 10.5174 33.4266" fill="black"/>
<path d="M23.8095 33.0241L26.8702 31.252C27.6759 32.5678 28.7231 33.5344 30.5757 33.5344C32.1332 33.5344 33.1264 32.7556 33.1264 31.6816C33.1264 30.3928 32.1062 29.9363 30.3877 29.1847L29.4482 28.7817C26.7361 27.6273 24.9371 26.1774 24.9371 23.1164C24.9371 20.2971 27.0851 18.149 30.4415 18.149C32.8312 18.149 34.5497 18.9814 35.7846 21.1563L32.8579 23.0357C32.2135 21.8813 31.5156 21.4249 30.4416 21.4249C29.3407 21.4249 28.6425 22.123 28.6425 23.0357C28.6425 24.1635 29.3407 24.6201 30.9516 25.3182L31.8912 25.721C35.0865 27.0904 36.8855 28.4865 36.8855 31.6279C36.8855 35.0112 34.2274 36.8638 30.6563 36.8638C27.1658 36.8638 24.9102 35.1991 23.8095 33.0241Z" fill="black"/>
</g>
</g>
<defs>
<clipPath id="clip0_5707_8">
<rect width="40" height="40" fill="white"/>
</clipPath>
<clipPath id="clip1_5707_8">
<rect width="40" height="40" fill="white"/>
</clipPath>
</defs>
</svg>
