<svg width="24" height="24" viewBox="0 0 24 24" fill="none" xmlns="http://www.w3.org/2000/svg">
<g clip-path="url(#clip0_6951_447)">
<path d="M11.2197 4.26142C14.5241 3.82664 17.8284 3.3049 21.1328 2.87012C21.1328 5.73968 21.1328 8.60925 21.1328 11.5658C17.8284 11.5658 14.5241 11.6527 11.2197 11.6527C11.2197 9.13099 11.2197 6.6962 11.2197 4.26142Z" fill="#00ADEF"/>
<path d="M2.87256 5.47951C5.3943 5.13169 7.82908 4.78386 10.3508 4.43604C10.3508 6.87082 10.3508 9.21864 10.3508 11.6534C7.82908 11.6534 5.3943 11.6534 2.87256 11.6534V5.47951Z" fill="#00ADEF"/>
<path d="M2.87256 12.436C5.3943 12.436 7.82908 12.436 10.3508 12.436C10.3508 14.8708 10.3508 17.2186 10.3508 19.6534C7.82908 19.3056 5.3943 18.9578 2.87256 18.6099V12.436Z" fill="#00ADEF"/>
<path d="M11.2197 12.5264C14.5241 12.5264 17.8284 12.5264 21.1328 12.5264C21.1328 15.3959 21.1328 18.2655 21.1328 21.1351C17.8284 20.6133 14.5241 20.1785 11.2197 19.7438C11.2197 17.309 11.2197 14.8742 11.2197 12.5264Z" fill="#00ADEF"/>
</g>
<defs>
<clipPath id="clip0_6951_447">
<rect width="20" height="20" fill="white" transform="translate(2 2)"/>
</clipPath>
</defs>
</svg>
