<svg width="24" height="24" viewBox="0 0 24 24" fill="none" xmlns="http://www.w3.org/2000/svg">
<path d="M9.15962 17.8669C9.15962 17.8669 8.33474 18.3509 9.74668 18.5146C11.4572 18.7115 12.3314 18.6833 14.2165 18.3233C14.2165 18.3233 14.7121 18.6369 15.4042 18.9084C11.1785 20.7357 5.84049 18.8026 9.15962 17.8669ZM8.64324 15.4824C8.64324 15.4824 7.71805 16.1734 9.13105 16.3208C10.9583 16.511 12.4013 16.5266 14.8983 16.0415C14.8983 16.0415 15.2437 16.3947 15.7867 16.588C10.6776 18.0953 4.98687 16.7068 8.64324 15.4824Z" fill="#5382A1"/>
<path d="M12.9965 11.438C14.0378 12.6475 12.723 13.7359 12.723 13.7359C12.723 13.7359 15.3668 12.3589 14.1526 10.6345C13.0186 9.0265 12.1489 8.22742 16.8568 5.47266C16.8568 5.47266 9.46697 7.33483 12.9965 11.438Z" fill="#E76F00"/>
<path d="M18.5852 19.6299C18.5852 19.6299 19.1956 20.1373 17.9129 20.5299C15.4737 21.2755 7.76086 21.5006 5.61824 20.5596C4.84805 20.2217 6.29243 19.7525 6.74674 19.654C7.22055 19.5503 7.49136 19.5697 7.49136 19.5697C6.6348 18.9609 1.95493 20.7651 5.11424 21.2817C13.7301 22.6915 20.82 20.647 18.5852 19.6299ZM9.55618 13.0112C9.55618 13.0112 5.63299 13.9514 8.16693 14.2927C9.2368 14.4373 11.3696 14.4046 13.3563 14.2366C14.9799 14.0985 16.6102 13.8047 16.6102 13.8047C16.6102 13.8047 16.0377 14.052 15.6236 14.3374C11.6396 15.3945 3.94318 14.9027 6.15886 13.8214C8.03268 12.9075 9.55618 13.0112 9.55618 13.0112ZM16.5941 16.9802C20.6441 14.8569 18.7715 12.8165 17.4645 13.0914C17.1441 13.1586 17.0013 13.2169 17.0013 13.2169C17.0013 13.2169 17.1202 13.029 17.3474 12.9476C19.933 12.0304 21.9216 15.6526 16.5127 17.0872C16.5127 17.0873 16.5754 17.0308 16.5941 16.9802Z" fill="#5382A1"/>
<path d="M14.1525 1.0235C14.1525 1.0235 16.3954 3.28729 12.0252 6.76818C8.52072 9.56053 11.226 11.1526 12.0237 12.9717C9.97809 11.1096 8.47684 9.47029 9.48403 7.94466C10.9622 5.70501 15.0574 4.61928 14.1525 1.0235Z" fill="#E76F00"/>
<path d="M9.95416 22.7334C13.8416 22.9845 19.8112 22.5942 19.9525 20.7383C19.9525 20.7383 19.6808 21.4419 16.7398 22.0006C13.4218 22.6305 9.32953 22.557 6.90234 22.1532C6.90241 22.1532 7.39916 22.5682 9.95416 22.7334Z" fill="#5382A1"/>
</svg>
