<svg width="24" height="24" viewBox="0 0 24 24" fill="none" xmlns="http://www.w3.org/2000/svg">
<g clip-path="url(#clip0_6951_541)">
<path d="M4.5 4.5C4.5 2.42893 6.17893 0.75 8.25 0.75H19.5C21.5711 0.75 23.25 2.42893 23.25 4.5V19.5C23.25 21.5711 21.5711 23.25 19.5 23.25H8.25C6.17893 23.25 4.5 21.5711 4.5 19.5V4.5Z" fill="#3782F5"/>
<rect opacity="0.9" x="7.3125" y="5.44043" width="6.5625" height="0.9375" rx="0.46875" fill="white"/>
<rect opacity="0.9" x="7.3125" y="8.25293" width="9.375" height="0.9375" rx="0.46875" fill="white"/>
<rect x="7.3125" y="12" width="13.125" height="1.875" rx="0.9375" fill="white" fill-opacity="0.4"/>
<rect x="7.3125" y="15.75" width="13.125" height="1.875" rx="0.9375" fill="white" fill-opacity="0.4"/>
<rect x="1.21875" y="11.5312" width="19.6875" height="8.4375" rx="0.46875" fill="white" stroke="#1464DE" stroke-width="0.9375"/>
<path d="M6.93073 15.9538C6.93073 16.4061 6.84375 16.7842 6.6698 17.0881C6.49768 17.3903 6.24774 17.6182 5.91998 17.772C5.59222 17.924 5.19763 18 4.73621 18H3.59912V13.9845H4.8598C5.28094 13.9845 5.64624 14.0596 5.95569 14.2097C6.26514 14.358 6.505 14.5787 6.67529 14.8716C6.84558 15.1628 6.93073 15.5235 6.93073 15.9538ZM6.04633 15.9758C6.04633 15.6791 6.00238 15.4356 5.91449 15.2452C5.82843 15.0529 5.70026 14.911 5.52997 14.8195C5.36151 14.7279 5.15277 14.6821 4.90375 14.6821H4.45056V17.2969H4.81586C5.23151 17.2969 5.54004 17.1861 5.74146 16.9645C5.9447 16.743 6.04633 16.4134 6.04633 15.9758ZM11.4077 15.9868C11.4077 16.2962 11.3692 16.5782 11.2923 16.8327C11.2154 17.0854 11.0982 17.3033 10.9407 17.4864C10.7851 17.6695 10.5873 17.8105 10.3475 17.9094C10.1076 18.0064 9.82379 18.0549 9.49603 18.0549C9.16827 18.0549 8.88446 18.0064 8.64459 17.9094C8.40472 17.8105 8.20605 17.6695 8.04858 17.4864C7.89294 17.3033 7.77667 17.0845 7.69977 16.83C7.62286 16.5754 7.58441 16.2925 7.58441 15.9813C7.58441 15.5656 7.65216 15.204 7.78766 14.8964C7.92499 14.5869 8.13556 14.347 8.41937 14.1768C8.70319 14.0065 9.0639 13.9213 9.50153 13.9213C9.93732 13.9213 10.2953 14.0065 10.5754 14.1768C10.8574 14.347 11.0662 14.5869 11.2017 14.8964C11.339 15.2058 11.4077 15.5693 11.4077 15.9868ZM8.47705 15.9868C8.47705 16.2669 8.51184 16.5086 8.58142 16.7119C8.65283 16.9133 8.76361 17.0689 8.91376 17.1788C9.0639 17.2868 9.258 17.3408 9.49603 17.3408C9.73773 17.3408 9.93365 17.2868 10.0838 17.1788C10.2339 17.0689 10.3429 16.9133 10.4106 16.7119C10.4802 16.5086 10.515 16.2669 10.515 15.9868C10.515 15.5656 10.4363 15.2342 10.2788 14.9925C10.1213 14.7508 9.86224 14.6299 9.50153 14.6299C9.26166 14.6299 9.06573 14.6849 8.91376 14.7947C8.76361 14.9028 8.65283 15.0584 8.58142 15.2617C8.51184 15.4631 8.47705 15.7048 8.47705 15.9868ZM13.9455 14.6354C13.7825 14.6354 13.6379 14.6675 13.5115 14.7316C13.387 14.7938 13.2817 14.8845 13.1957 15.0035C13.1115 15.1225 13.0474 15.2662 13.0034 15.4347C12.9595 15.6031 12.9375 15.7927 12.9375 16.0032C12.9375 16.287 12.9723 16.5297 13.0419 16.7311C13.1133 16.9307 13.2231 17.0836 13.3715 17.1898C13.5198 17.2941 13.7111 17.3463 13.9455 17.3463C14.1085 17.3463 14.2714 17.328 14.4344 17.2914C14.5992 17.2548 14.7777 17.2026 14.97 17.1348V17.8489C14.7924 17.9222 14.6175 17.9744 14.4454 18.0055C14.2733 18.0385 14.0801 18.0549 13.8658 18.0549C13.452 18.0549 13.1115 17.9698 12.8441 17.7995C12.5786 17.6274 12.3818 17.3875 12.2536 17.0799C12.1254 16.7704 12.0613 16.4097 12.0613 15.9977C12.0613 15.6938 12.1025 15.4155 12.1849 15.1628C12.2673 14.9101 12.3882 14.6913 12.5475 14.5063C12.7068 14.3214 12.9036 14.1786 13.138 14.0779C13.3724 13.9772 13.6415 13.9268 13.9455 13.9268C14.1451 13.9268 14.3447 13.9525 14.5443 14.0037C14.7457 14.0532 14.9379 14.1218 15.121 14.2097L14.8464 14.9019C14.6962 14.8304 14.5452 14.7682 14.3932 14.7151C14.2412 14.662 14.092 14.6354 13.9455 14.6354ZM19.0734 18H18.1011L17.1672 16.4811L16.2334 18H15.3215L16.6536 15.9291L15.4067 13.9845H16.346L17.2112 15.4292L18.0599 13.9845H18.9772L17.7166 15.9758L19.0734 18Z" fill="#1464DE"/>
</g>
<defs>
<clipPath id="clip0_6951_541">
<rect width="24" height="24" fill="white"/>
</clipPath>
</defs>
</svg>
