<svg width="40" height="40" viewBox="0 0 40 40" fill="none" xmlns="http://www.w3.org/2000/svg">
<rect width="40" height="40" fill="white"/>
<path d="M39.7228 13.7428C38.858 19.2405 36.0985 24.2487 31.935 27.8765C27.7716 31.5043 22.4743 33.5165 16.9856 33.5551C15.8738 33.5984 14.7605 33.5298 13.6621 33.3505C11.3649 32.9546 9.27091 31.772 7.72945 29.9998C6.18799 28.2277 5.29222 25.9732 5.19153 23.6123C5.21372 20.979 6.25593 18.4601 8.09325 16.5993C9.93046 14.7386 12.4155 13.6853 15.0119 13.6667C17.6083 13.6481 20.1078 14.6657 21.9708 16.4999C23.8338 18.3342 24.9111 20.8378 24.97 23.4704C25.0115 25.1332 24.3013 26.5917 22.8417 26.6338C21.2822 26.6338 20.5511 25.5052 20.5511 23.9843V19.7579C20.5517 19.0745 20.2858 18.4185 19.8113 17.9332C19.3369 17.4478 18.6925 17.1723 18.0186 17.1669H14.5254C13.5093 17.1597 12.5076 17.411 11.612 17.8977C10.7164 18.3844 9.95529 19.091 9.39836 19.9529C8.84136 20.8148 8.5062 21.8045 8.4235 22.8316C8.34079 23.8587 8.51318 24.8904 8.92491 25.8325C9.33664 26.7746 9.97459 27.5971 10.7805 28.2247C11.5864 28.8524 12.5345 29.2653 13.5382 29.4256C14.542 29.5858 15.5693 29.4883 16.5263 29.1421C17.4833 28.7959 18.3395 28.212 19.0166 27.4437L19.1388 27.2589L19.2611 27.464C19.6812 28.0429 20.2359 28.5076 20.8758 28.8166C21.5157 29.1257 22.221 29.2696 22.929 29.2355C24.1909 29.1425 25.367 28.5529 26.2061 27.5926C27.0453 26.6322 27.481 25.3772 27.4202 24.0955C27.4325 22.9957 27.3109 21.8985 27.0583 20.8289C26.4105 17.8071 24.6827 15.1355 22.208 13.3293C19.7333 11.5231 16.6869 10.71 13.6561 11.0467C10.6253 11.3833 7.82473 12.846 5.79428 15.1527C3.76368 17.4595 2.64693 20.447 2.65927 23.5393C2.69824 26.8182 3.98885 29.9542 6.25995 32.2884C8.53084 34.6224 11.6055 35.9728 14.8377 36.0557C14.8377 36.0557 15.7525 36.1401 16.7838 36.1161C21.7972 36.0839 26.6972 34.6012 30.9083 31.8422C30.9682 31.7999 31.0281 31.8843 30.9882 31.9458C28.9381 34.1857 26.4311 35.9453 23.6419 37.1021C20.8527 38.259 17.8483 38.7853 14.8381 38.6443C12.8702 38.6805 10.9154 38.3121 9.09168 37.5612C7.268 36.8103 5.61321 35.6925 4.22717 34.2752C2.841 32.8579 1.75226 31.1705 1.02661 29.3148C0.300961 27.4592 -0.0465619 25.4737 0.00500248 23.4781C0.00594966 21.099 0.554021 18.7529 1.60567 16.6262C2.65731 14.4995 4.18355 12.6509 6.06309 11.2272C8.58896 9.34077 11.6414 8.31879 14.7783 8.30933H19.4667C21.2981 8.30794 23.1092 7.91977 24.7845 7.16954C26.4599 6.41931 27.9629 5.32347 29.1977 3.9518C29.2238 3.92246 29.2584 3.90238 29.2966 3.89451C29.3347 3.88614 29.3745 3.89014 29.4103 3.90596C29.446 3.92178 29.476 3.9486 29.4958 3.98263C29.5159 4.01679 29.5249 4.0564 29.5217 4.09614C29.3229 6.23327 28.6214 8.29082 27.476 10.096C27.4591 10.1273 27.4514 10.163 27.4541 10.1987C27.4568 10.2343 27.4696 10.2684 27.4911 10.2968C27.5125 10.3252 27.5415 10.3466 27.5746 10.3586C27.6077 10.3705 27.6435 10.3725 27.6777 10.3642C29.842 9.86839 31.8612 8.86428 33.573 7.43267C35.2848 6.00106 36.6413 4.18193 37.5334 2.12167C37.556 2.08485 37.5872 2.05428 37.6244 2.03262C37.6618 2.01124 37.704 2 37.7469 2C37.7898 2 37.832 2.01124 37.8694 2.03262C37.9066 2.05415 37.9379 2.08472 37.9604 2.12167C39.7978 5.69149 40.4176 9.77802 39.7228 13.7428ZM14.8256 19.7052C14.2864 19.7051 13.7537 19.8263 13.2662 20.0601C12.7787 20.2938 12.3483 20.6344 12.0062 21.0572C11.664 21.4799 11.4186 21.9744 11.2876 22.505C11.1566 23.0355 11.1433 23.5889 11.2486 24.1253C11.3893 24.8428 11.7366 25.5018 12.2466 26.0191C12.7566 26.5364 13.4064 26.8887 14.1139 27.0315C14.6428 27.1382 15.1884 27.1246 15.7115 26.9916C16.2346 26.8587 16.7221 26.6098 17.1389 26.2628C17.5558 25.9158 17.8915 25.4793 18.122 24.9849C18.3524 24.4905 18.4719 23.9503 18.4718 23.4034V19.9507C18.4685 19.8846 18.4412 19.8222 18.3951 19.7754C18.349 19.7286 18.2874 19.7009 18.2223 19.6976L14.8256 19.7052Z" fill="#592C8C"/>
</svg>
