<svg width="24" height="24" viewBox="0 0 24 24" fill="none" xmlns="http://www.w3.org/2000/svg">
<g clip-path="url(#clip0_17821_225)">
<path d="M12.1294 15.7417H21.2133C22.3235 15.7417 23.2213 14.8374 23.2132 13.7272L23.1663 7.23821C23.1615 6.58134 22.8984 5.95273 22.4339 5.4883L18.4449 1.50037C17.9761 1.03167 17.3403 0.768372 16.6773 0.768372H12.1294C11.0248 0.768372 10.1294 1.6638 10.1294 2.76837V13.7417C10.1294 14.8463 11.0248 15.7417 12.1294 15.7417Z" fill="#349FE6" stroke="#19A3E2" stroke-width="1.5"/>
<path d="M15.6563 7.43402L14.0231 8.86315L12.3898 7.43402H11.5731V12.3339H13.2064V9.88395L14.0231 10.7006L14.8397 9.88395V12.3339H16.473V7.43402H15.6563ZM20.5562 9.88395V7.43402H18.9229V9.88395H17.2896L19.7396 13.1505L22.1895 9.88395H20.5562Z" fill="white"/>
<path d="M7.005 3.84972L8.44857 2.44022L7.09472 0.953897" stroke="#0057FF" stroke-width="1.25" stroke-linecap="round" stroke-linejoin="round"/>
<path d="M8.06938 2.39324C4.7266 1.9828 2.57937 4.17093 2.29425 6.49307" stroke="#0057FF" stroke-width="1.25" stroke-linecap="round"/>
<path d="M2.77002 23.0737H11.8539C12.9641 23.0737 13.8619 22.1694 13.8539 21.0592L13.8054 14.3652C13.8016 13.8397 13.5911 13.3368 13.2195 12.9652L8.93906 8.68594C8.564 8.31098 8.05538 8.10034 7.52504 8.10034H2.77002C1.66545 8.10034 0.77002 8.99577 0.77002 10.1003V21.0737C0.77002 22.1783 1.66545 23.0737 2.77002 23.0737Z" fill="#03A63F" stroke="#03A63F" stroke-width="1.5"/>
<path d="M5.27639 13.0528L7.01373 15.9419H7.07536L8.8204 13.0528H10.4499L8.01915 16.9974L10.4884 20.9421H8.83196L7.07536 18.0722H7.01373L5.25713 20.9421H3.6084L6.10076 16.9974L3.63922 13.0528H5.27639Z" fill="white"/>
</g>
<defs>
<clipPath id="clip0_17821_225">
<rect width="24" height="24" fill="white"/>
</clipPath>
</defs>
</svg>
