<svg width="24" height="24" viewBox="0 0 24 24" fill="none" xmlns="http://www.w3.org/2000/svg">
<g clip-path="url(#clip0_17821_171)">
<path d="M12.6294 15.7417H21.2133C22.3235 15.7417 23.2213 14.8374 23.2132 13.7272L23.1663 7.23821C23.1615 6.58134 22.8984 5.95273 22.4339 5.4883L18.4449 1.50037C17.9761 1.03167 17.3403 0.768372 16.6773 0.768372H12.1294C11.0248 0.768372 10.1294 1.6638 10.1294 2.76837V13.2417C10.1294 14.6224 11.2487 15.7417 12.6294 15.7417Z" fill="#E53935" stroke="#E53935" stroke-width="1.5"/>
<path d="M16.3413 5.01901C17.4148 5.01901 18.1981 5.23825 18.6912 5.67674C19.1843 6.11522 19.4309 6.72948 19.4309 7.5195C19.4309 7.87861 19.374 8.2207 19.2602 8.54578C19.1502 8.86708 18.9681 9.15248 18.714 9.40196C18.4598 9.64766 18.1241 9.84233 17.7069 9.98597C17.2934 10.1296 16.7832 10.2014 16.1763 10.2014H15.2887V13.3086H13.9231V5.01901H16.3413ZM16.2503 6.14735H15.2887V9.06743H16.034C16.4627 9.06743 16.8268 9.01829 17.1265 8.92001C17.4262 8.81794 17.6538 8.65729 17.8093 8.43805C17.9648 8.21881 18.0426 7.92964 18.0426 7.57053C18.0426 7.09047 17.8965 6.73326 17.6045 6.49889C17.3162 6.26453 16.8648 6.14735 16.2503 6.14735Z" fill="white"/>
<path d="M6.99841 3.84856L8.44198 2.43906L7.08813 0.952737" stroke="#0057FF" stroke-width="1.25" stroke-linecap="round" stroke-linejoin="round"/>
<path d="M8.06279 2.39208C4.72001 1.98164 2.57278 4.16977 2.28766 6.49191" stroke="#0057FF" stroke-width="1.25" stroke-linecap="round"/>
<path d="M2.77002 23.0742H11.8539C12.9641 23.0742 13.8619 22.1699 13.8539 21.0597L13.8069 14.5707C13.8022 13.9138 13.5391 13.2852 13.0745 12.8208L9.0855 8.83283C8.61668 8.36413 7.9809 8.10083 7.31797 8.10083H2.77002C1.66545 8.10083 0.77002 8.99626 0.77002 10.1008V21.0742C0.77002 22.1787 1.66545 23.0742 2.77002 23.0742Z" fill="#349FE6" stroke="#19A3E2" stroke-width="1.5"/>
<path d="M6.29697 14.7665L4.66368 16.1956L3.03039 14.7665H2.21375V19.6663H3.84703V17.2164L4.66368 18.0331L5.48032 17.2164V19.6663H7.11361V14.7665H6.29697ZM11.1968 17.2164V14.7665H9.56355V17.2164H7.93026L10.3802 20.483L12.8301 17.2164H11.1968Z" fill="white"/>
</g>
<defs>
<clipPath id="clip0_17821_171">
<rect width="24" height="24" fill="white"/>
</clipPath>
</defs>
</svg>
