<svg width="24" height="24" viewBox="0 0 24 24" fill="none" xmlns="http://www.w3.org/2000/svg">
<g clip-path="url(#clip0_17821_252)">
<path d="M7.00259 3.84344L8.44616 2.43393L7.09231 0.947609" stroke="#0057FF" stroke-width="1.25" stroke-linecap="round" stroke-linejoin="round"/>
<path d="M8.06726 2.38696C4.72364 1.97642 2.57596 4.16449 2.29083 6.48663" stroke="#0057FF" stroke-width="1.25" stroke-linecap="round"/>
<path d="M12.1292 16.6792H21.2131C22.3234 16.6792 23.2211 15.7749 23.2131 14.6647L23.1661 8.17568C23.1614 7.51881 22.8983 6.8902 22.4337 6.42577L18.4447 2.43784C17.9759 1.96914 17.3401 1.70584 16.6772 1.70584H12.1292C11.0247 1.70584 10.1292 2.60127 10.1292 3.70584V14.6792C10.1292 15.7838 11.0247 16.6792 12.1292 16.6792Z" fill="#03A63F" stroke="#03A63F" stroke-width="1.5"/>
<path d="M14.9064 5.73611L16.6438 8.62525H16.7054L18.4504 5.73611H20.0799L17.6492 9.68075L20.1184 13.6254H18.462L16.7054 10.7555H16.6438L14.8872 13.6254H13.2384L15.7308 9.68075L13.2693 5.73611H14.9064Z" fill="white"/>
<path d="M2.76987 23.23H11.8538C12.964 23.23 13.8617 22.3257 13.8537 21.2155L13.8068 14.7265C13.802 14.0696 13.5389 13.441 13.0743 12.9766L9.08535 8.98865C8.61653 8.51995 7.98074 8.25665 7.31782 8.25665H2.76987C1.6653 8.25665 0.769867 9.15209 0.769867 10.2567V21.23C0.769867 22.3346 1.6653 23.23 2.76987 23.23Z" fill="#349FE6" stroke="#19A3E2" stroke-width="1.5"/>
<path d="M6.29682 14.9223L4.66353 16.3514L3.03024 14.9223H2.21359V19.8222H3.84688V17.3722L4.66353 18.1889L5.48017 17.3722V19.8222H7.11346V14.9223H6.29682ZM11.1967 17.3722V14.9223H9.56339V17.3722H7.93011L10.38 20.6388L12.83 17.3722H11.1967Z" fill="white"/>
</g>
<defs>
<clipPath id="clip0_17821_252">
<rect width="24" height="24" fill="white"/>
</clipPath>
</defs>
</svg>
