<svg width="24" height="24" viewBox="0 0 24 24" fill="none" xmlns="http://www.w3.org/2000/svg">
<g clip-path="url(#clip0_17821_212)">
<path d="M12.1304 15.9774H21.2143C22.3245 15.9774 23.2223 15.0732 23.2143 13.963L23.1658 7.26891C23.162 6.74341 22.9516 6.24052 22.5799 5.86897L18.2995 1.58969C17.9244 1.21473 17.4158 1.00409 16.8855 1.00409H12.1304C11.0259 1.00409 10.1304 1.89952 10.1304 3.00409V13.9774C10.1304 15.082 11.0259 15.9774 12.1304 15.9774Z" fill="#FF5B15" stroke="#FF5B15" stroke-width="1.5"/>
<path d="M16.4002 5.2265C17.4737 5.2265 18.257 5.44574 18.7501 5.88423C19.2432 6.32271 19.4898 6.93697 19.4898 7.72699C19.4898 8.0861 19.4329 8.42819 19.3191 8.75327C19.2091 9.07457 19.027 9.35997 18.7729 9.60945C18.5187 9.85515 18.183 10.0498 17.7658 10.1935C17.3523 10.3371 16.8421 10.4089 16.2352 10.4089H15.3476V13.5161H13.982V5.2265H16.4002ZM16.3092 6.35484H15.3476V9.27492H16.0929C16.5216 9.27492 16.8857 9.22578 17.1854 9.12749C17.4851 9.02543 17.7127 8.86478 17.8682 8.64554C18.0237 8.4263 18.1015 8.13713 18.1015 7.77802C18.1015 7.29796 17.9554 6.94075 17.6634 6.70638C17.3751 6.47202 16.9237 6.35484 16.3092 6.35484Z" fill="white"/>
<path d="M7.0061 4.08559L8.44967 2.67609L7.09582 1.18977" stroke="#0057FF" stroke-width="1.25" stroke-linecap="round" stroke-linejoin="round"/>
<path d="M8.07048 2.62911C4.7277 2.21867 2.58047 4.4068 2.29535 6.72894" stroke="#0057FF" stroke-width="1.25" stroke-linecap="round"/>
<path d="M2.92474 23.3087H12.0086C13.1189 23.3087 14.0166 22.4044 14.0086 21.2942L13.9616 14.8052C13.9569 14.1483 13.6938 13.5197 13.2292 13.0553L9.24022 9.06735C8.7714 8.59866 8.13562 8.33536 7.47269 8.33536H2.92474C1.82017 8.33536 0.924744 9.23079 0.924744 10.3354V21.3087C0.924744 22.4133 1.82017 23.3087 2.92474 23.3087Z" fill="#349FE6" stroke="#19A3E2" stroke-width="1.5"/>
<path d="M6.45169 15.001L4.8184 16.4301L3.18511 15.001H2.36847V19.9009H4.00176V17.4509L4.8184 18.2676L5.63505 17.4509V19.9009H7.26834V15.001H6.45169ZM11.3516 17.4509V15.001H9.71827V17.4509H8.08498L10.5349 20.7175L12.9848 17.4509H11.3516Z" fill="white"/>
</g>
<defs>
<clipPath id="clip0_17821_212">
<rect width="24" height="24" fill="white"/>
</clipPath>
</defs>
</svg>
