<svg width="24" height="24" viewBox="0 0 24 24" fill="none" xmlns="http://www.w3.org/2000/svg">
<g clip-path="url(#clip0_17821_184)">
<path d="M7.00354 3.84292L8.44711 2.43341L7.09325 0.94709" stroke="#0057FF" stroke-width="1.25" stroke-linecap="round" stroke-linejoin="round"/>
<path d="M8.0682 2.38647C4.72459 1.97593 2.5769 4.164 2.29178 6.48615" stroke="#0057FF" stroke-width="1.25" stroke-linecap="round"/>
<path d="M12.1292 16.9733H21.2131C22.3234 16.9733 23.2211 16.069 23.2131 14.9588L23.1661 8.4698C23.1614 7.81292 22.8983 7.18431 22.4337 6.71988L18.4447 2.73195C17.9759 2.26325 17.3401 1.99995 16.6772 1.99995H12.1292C11.0247 1.99995 10.1292 2.89539 10.1292 3.99996V14.9733C10.1292 16.0779 11.0247 16.9733 12.1292 16.9733Z" fill="#349FE6" stroke="#19A3E2" stroke-width="1.5"/>
<path d="M15.6562 8.66559L14.0229 10.0947L12.3896 8.66559H11.573V13.5655H13.2063V11.1155L14.0229 11.9322L14.8395 11.1155V13.5655H16.4728V8.66559H15.6562ZM20.5561 11.1155V8.66559H18.9228V11.1155H17.2895L19.7394 14.3821L22.1893 11.1155H20.5561Z" fill="white"/>
<path d="M2.76987 23.2289H11.8538C12.964 23.2289 13.8617 22.3246 13.8537 21.2144L13.8068 14.7254C13.802 14.0685 13.5389 13.4399 13.0743 12.9755L9.08535 8.98755C8.61653 8.51885 7.98074 8.25555 7.31782 8.25555H2.76987C1.6653 8.25555 0.769867 9.15099 0.769867 10.2556V21.2289C0.769867 22.3335 1.6653 23.2289 2.76987 23.2289Z" fill="#E53935" stroke="#E53935" stroke-width="1.5"/>
<path d="M6.98336 12.9053C8.05685 12.9053 8.84016 13.1245 9.33328 13.563C9.82641 14.0015 10.073 14.6157 10.073 15.4058C10.073 15.7649 10.0161 16.107 9.90227 16.432C9.79227 16.7533 9.61019 17.0387 9.35604 17.2882C9.10189 17.5339 8.76619 17.7286 8.34893 17.8722C7.93547 18.0159 7.42527 18.0877 6.81835 18.0877H5.93073V21.1949H4.56516V12.9053H6.98336ZM6.89232 14.0336H5.93073V16.9537H6.6761C7.10474 16.9537 7.4689 16.9045 7.76856 16.8063C8.06823 16.7042 8.29583 16.5436 8.45135 16.3243C8.60687 16.1051 8.68463 15.8159 8.68463 15.4568C8.68463 14.9767 8.53859 14.6195 8.24651 14.3852C7.95823 14.1508 7.50683 14.0336 6.89232 14.0336Z" fill="white"/>
</g>
<defs>
<clipPath id="clip0_17821_184">
<rect width="24" height="24" fill="white"/>
</clipPath>
</defs>
</svg>
