<svg width="24" height="24" viewBox="0 0 24 24" fill="none" xmlns="http://www.w3.org/2000/svg">
<g clip-path="url(#clip0_17821_198)">
<path d="M12.1294 15.7417H21.2132C22.3235 15.7417 23.2212 14.8374 23.2132 13.7272L23.1662 7.23821C23.1615 6.58134 22.8984 5.95273 22.4338 5.4883L18.4448 1.50037C17.976 1.03167 17.3402 0.768372 16.6773 0.768372H12.1294C11.0248 0.768372 10.1294 1.6638 10.1294 2.76837V13.7417C10.1294 14.8463 11.0248 15.7417 12.1294 15.7417Z" fill="#349FE6" stroke="#19A3E2" stroke-width="1.5"/>
<path d="M15.6563 7.43402L14.023 8.86315L12.3897 7.43402H11.5731V12.3339H13.2064V9.88395L14.023 10.7006L14.8397 9.88395V12.3339H16.473V7.43402H15.6563ZM20.5562 9.88395V7.43402H18.9229V9.88395H17.2896L19.7395 13.1505L22.1895 9.88395H20.5562Z" fill="white"/>
<path d="M7.00494 3.84972L8.44851 2.44022L7.09466 0.953897" stroke="#0057FF" stroke-width="1.25" stroke-linecap="round" stroke-linejoin="round"/>
<path d="M8.06929 2.39324C4.72651 1.9828 2.57928 4.17093 2.29416 6.49307" stroke="#0057FF" stroke-width="1.25" stroke-linecap="round"/>
<path d="M2.76999 23.0728H11.8539C12.9641 23.0728 13.8619 22.1686 13.8538 21.0584L13.8054 14.3643C13.8016 13.8388 13.5911 13.3359 13.2195 12.9644L8.93903 8.68508C8.56397 8.31013 8.05535 8.09949 7.52501 8.09949H2.76999C1.66542 8.09949 0.769989 8.99492 0.769989 10.0995V21.0728C0.769989 22.1774 1.66542 23.0728 2.76999 23.0728Z" fill="#FF5B15" stroke="#FF5B15" stroke-width="1.5"/>
<path d="M7.03975 12.3219C8.11325 12.3219 8.89655 12.5411 9.38968 12.9796C9.8828 13.4181 10.1294 14.0324 10.1294 14.8224C10.1294 15.1815 10.0725 15.5236 9.95867 15.8487C9.84866 16.17 9.66659 16.4554 9.41244 16.7048C9.15829 16.9505 8.82259 17.1452 8.40533 17.2889C7.99186 17.4325 7.48167 17.5043 6.87475 17.5043H5.98712V20.6115H4.62155V12.3219H7.03975ZM6.94872 13.4502H5.98712V16.3703H6.7325C7.16114 16.3703 7.52529 16.3212 7.82496 16.2229C8.12463 16.1208 8.35222 15.9602 8.50775 15.7409C8.66327 15.5217 8.74103 15.2325 8.74103 14.8734C8.74103 14.3934 8.59499 14.0361 8.30291 13.8018C8.01462 13.5674 7.56322 13.4502 6.94872 13.4502Z" fill="white"/>
</g>
<defs>
<clipPath id="clip0_17821_198">
<rect width="24" height="24" fill="white"/>
</clipPath>
</defs>
</svg>
