<svg width="24" height="24" viewBox="0 0 24 24" fill="none" xmlns="http://www.w3.org/2000/svg">
<g clip-path="url(#clip0_9552_1431)">
<path d="M12.1306 15.9776H21.2145C22.3247 15.9776 23.2225 15.0733 23.2144 13.9631L23.1675 7.47408C23.1627 6.81721 22.8997 6.1886 22.4351 5.72417L18.4461 1.73624C17.9773 1.26754 17.3415 1.00424 16.6786 1.00424H12.1306C11.026 1.00424 10.1306 1.89967 10.1306 3.00424V13.9776C10.1306 15.0822 11.026 15.9776 12.1306 15.9776Z" fill="#349FE6" stroke="#19A3E2" stroke-width="1.5"/>
<path d="M16.0832 6.90466L14.4499 8.33379L12.8166 6.90466H12V11.8045H13.6333V9.3546L14.4499 10.1712L15.2666 9.3546V11.8045H16.8999V6.90466H16.0832ZM20.9831 9.3546V6.90466H19.3498V9.3546H17.7165L20.1664 12.6212L22.6164 9.3546H20.9831Z" fill="white"/>
<path d="M7.00629 4.08559L8.44986 2.67609L7.096 1.18977" stroke="#0057FF" stroke-width="1.25" stroke-linecap="round" stroke-linejoin="round"/>
<path d="M8.07054 2.62911C4.72776 2.21867 2.58053 4.4068 2.29541 6.72894" stroke="#0057FF" stroke-width="1.25" stroke-linecap="round"/>
<path d="M2.9248 23.4641H12.0087C13.1189 23.4641 14.0167 22.5598 14.0086 21.4496L13.9617 14.9606C13.9569 14.3037 13.6938 13.6751 13.2293 13.2107L9.24029 9.22275C8.77146 8.75405 8.13568 8.49075 7.47276 8.49075H2.9248C1.82024 8.49075 0.924805 9.38619 0.924805 10.4908V21.4641C0.924805 22.5687 1.82023 23.4641 2.9248 23.4641Z" fill="#3782F5" stroke="#3782F5" stroke-width="1.5"/>
<path d="M11.843 14.2298L10.0918 20.9104H8.89067L7.77209 16.9076C7.74458 16.8101 7.71402 16.6943 7.6804 16.5603C7.64678 16.4262 7.61316 16.2891 7.57955 16.149C7.54898 16.0089 7.52148 15.8809 7.49703 15.7652C7.47563 15.6464 7.46035 15.555 7.45118 15.491C7.44507 15.555 7.43132 15.6448 7.40993 15.7606C7.38853 15.8764 7.36255 16.0043 7.33199 16.1444C7.30449 16.2815 7.27392 16.4186 7.2403 16.5557C7.20669 16.6897 7.17612 16.8085 7.14862 16.9121L6.04837 20.9104H4.85186L3.10522 14.2298H4.21005L5.17735 18.1459C5.20791 18.2708 5.23847 18.4063 5.26904 18.5526C5.30265 18.6958 5.33322 18.8405 5.36072 18.9867C5.39129 19.1329 5.41879 19.2761 5.44324 19.4162C5.46769 19.5533 5.48756 19.6782 5.50284 19.7909C5.51812 19.6751 5.53798 19.5472 5.56243 19.4071C5.58688 19.2639 5.61286 19.1192 5.64037 18.973C5.67093 18.8237 5.70149 18.6805 5.73205 18.5434C5.76567 18.4063 5.79929 18.283 5.83291 18.1733L6.92398 14.2298H7.99672L9.11072 18.187C9.14434 18.2997 9.17643 18.4262 9.20699 18.5663C9.24061 18.7064 9.2727 18.8496 9.30326 18.9958C9.33382 19.142 9.36133 19.2837 9.38578 19.4208C9.41023 19.5579 9.43009 19.6812 9.44538 19.7909C9.46677 19.6416 9.49427 19.471 9.52789 19.2791C9.56151 19.0872 9.59971 18.8922 9.6425 18.6942C9.68529 18.4962 9.72808 18.3134 9.77086 18.1459L10.7336 14.2298H11.843Z" fill="white"/>
</g>
<defs>
<clipPath id="clip0_9552_1431">
<rect width="24" height="24" fill="white"/>
</clipPath>
</defs>
</svg>
