<svg width="40" height="40" viewBox="0 0 40 40" fill="none" xmlns="http://www.w3.org/2000/svg">
<rect width="40" height="40" fill="white"/>
<path d="M18.5049 34.3279C21.6495 33.7734 24.7936 33.217 27.9375 32.6585L28.0261 32.6396L23.1742 26.8685C20.5057 23.6945 18.3224 21.0852 18.3224 21.0703C18.3224 21.0419 23.3323 7.2456 23.3605 7.19642C23.3699 7.18016 26.7793 13.0663 31.6251 21.4652C36.1618 29.3282 39.902 35.8113 39.9368 35.872L40 35.9824L24.5807 35.9803L9.16122 35.9783L18.5049 34.3279ZM0 32.5679C0 32.5598 2.28614 28.5913 5.08035 23.7489L10.1607 14.9446L16.0812 9.97621C19.3374 7.24357 22.0105 5.00418 22.0212 5.00011C22.0318 4.99605 21.9891 5.10376 21.9259 5.23952C21.8629 5.37548 18.9699 11.5805 15.4971 19.0287L9.18276 32.571L4.59138 32.5768C2.06624 32.5801 0 32.576 0 32.5679Z" fill="#0089D6"/>
</svg>
