<svg width="24" height="24" viewBox="0 0 24 24" fill="none" xmlns="http://www.w3.org/2000/svg">
<path d="M4.66602 4.66667C4.66602 2.64162 6.30764 1 8.33268 1H19.3327C21.3577 1 22.9993 2.64162 22.9993 4.66667V19.3333C22.9993 21.3584 21.3577 23 19.3327 23H8.33269C6.30764 23 4.66602 21.3584 4.66602 19.3333V4.66667Z" fill="#FF5B15"/>
<g opacity="0.9">
<path d="M16.8311 6.83407C16.8311 7.49334 16.6356 8.1378 16.2694 8.68597C15.9031 9.23413 15.3825 9.66137 14.7734 9.91366C14.1643 10.166 13.4941 10.232 12.8475 10.1034C12.2009 9.97473 11.607 9.65726 11.1408 9.19109C10.6747 8.72491 10.3572 8.13097 10.2286 7.48437C10.1 6.83776 10.166 6.16754 10.4183 5.55845C10.6706 4.94937 11.0978 4.42877 11.646 4.0625C12.1941 3.69623 12.8386 3.50073 13.4978 3.50073V6.83407H16.8311Z" fill="white"/>
<mask id="mask0_6951_1019" style="mask-type:alpha" maskUnits="userSpaceOnUse" x="13" y="2" width="5" height="5">
<rect x="13.499" y="2.83594" width="3.99994" height="4" fill="#FFDECC"/>
</mask>
<g mask="url(#mask0_6951_1019)">
<path d="M17.0825 6.27633C17.0825 5.88236 17.0049 5.49225 16.8541 5.12828C16.7034 4.7643 16.4824 4.43358 16.2038 4.15501C15.9252 3.87643 15.5945 3.65545 15.2306 3.50469C14.8666 3.35392 14.4765 3.27633 14.0825 3.27633L14.0825 6.27633H17.0825Z" fill="white"/>
</g>
</g>
<rect x="1.45785" y="11.5416" width="18.4433" height="8.25" rx="0.458333" fill="white" stroke="#ED4700" stroke-width="0.916667"/>
<path d="M5.4978 14.0737C6.00448 14.0737 6.37419 14.1829 6.60693 14.4014C6.83968 14.618 6.95605 14.917 6.95605 15.2983C6.95605 15.4702 6.93009 15.6349 6.87817 15.7925C6.82625 15.9482 6.74121 16.087 6.62305 16.2087C6.50667 16.3305 6.35091 16.4272 6.15576 16.4988C5.96061 16.5686 5.71981 16.6035 5.43335 16.6035H5.07617V18H4.24365V14.0737H5.4978ZM5.45483 14.7559H5.07617V15.9214H5.3501C5.50586 15.9214 5.64103 15.9008 5.75562 15.8596C5.8702 15.8184 5.95882 15.754 6.02148 15.6663C6.08415 15.5785 6.11548 15.4657 6.11548 15.3279C6.11548 15.1345 6.06177 14.9913 5.95435 14.8982C5.84692 14.8033 5.68042 14.7559 5.45483 14.7559ZM8.95142 14.0737C9.45809 14.0737 9.8278 14.1829 10.0605 14.4014C10.2933 14.618 10.4097 14.917 10.4097 15.2983C10.4097 15.4702 10.3837 15.6349 10.3318 15.7925C10.2799 15.9482 10.1948 16.087 10.0767 16.2087C9.96029 16.3305 9.80452 16.4272 9.60938 16.4988C9.41423 16.5686 9.17342 16.6035 8.88696 16.6035H8.52979V18H7.69727V14.0737H8.95142ZM8.90845 14.7559H8.52979V15.9214H8.80371C8.95947 15.9214 9.09465 15.9008 9.20923 15.8596C9.32381 15.8184 9.41243 15.754 9.4751 15.6663C9.53776 15.5785 9.56909 15.4657 9.56909 15.3279C9.56909 15.1345 9.51538 14.9913 9.40796 14.8982C9.30054 14.8033 9.13403 14.7559 8.90845 14.7559ZM12.6655 18H11.833V14.7666H10.7668V14.0737H13.7317V14.7666H12.6655V18ZM17.5103 18H16.5596L15.6465 16.5149L14.7334 18H13.8418L15.1443 15.9751L13.925 14.0737H14.8435L15.6895 15.4863L16.5193 14.0737H17.4163L16.1836 16.0208L17.5103 18Z" fill="#ED4700"/>
</svg>
